<svg xmlns="http://www.w3.org/2000/svg" width="17" height="12" viewBox="0 0 17 12" fill="none">
    <path fill-rule="evenodd" clip-rule="evenodd" d="M15.072 5.00025H3.48603L6.77903 1.70725C7.17003 1.31625 7.17003 0.68425 6.77903 0.29325C6.38803 -0.09775 5.75603 -0.09775 5.36503 0.29325L0.365027 5.29325C-0.0259727 5.68425 -0.0259727 6.31625 0.365027 6.70725L5.36503 11.7072C5.56003 11.9022 5.81603 12.0002 6.07203 12.0002C6.32803 12.0002 6.58403 11.9022 6.77903 11.7072C7.17003 11.3162 7.17003 10.6842 6.77903 10.2933L3.48603 7.00025H15.072C15.625 7.00025 16.072 6.55225 16.072 6.00025C16.072 5.44825 15.625 5.00025 15.072 5.00025Z" fill="#585A6A"/>
</svg>