<?xml version="1.0" encoding="UTF-8"?>
<svg width="100pt" height="100pt" version="1.1" viewBox="0 0 100 100" xmlns="http://www.w3.org/2000/svg">
 <g>
  <path d="m50 56.664c-12.973 0-23.523-10.555-23.523-23.523 0-12.973 10.551-23.523 23.523-23.523s23.523 10.555 23.523 23.523c0 12.973-10.551 23.523-23.523 23.523zm0-40.684c-9.4609 0-17.16 7.6953-17.16 17.156 0 9.4609 7.6953 17.16 17.16 17.16 9.4609 0 17.156-7.6992 17.156-17.16 0-9.457-7.6953-17.156-17.156-17.156z"/>
  <path d="m11.609 90.387c-0.26172 0-0.52734-0.03125-0.79297-0.10156-1.7031-0.4375-2.7305-2.168-2.2969-3.8711 1.6641-6.5039 4.5117-12.902 8.9688-20.129 1.6914-2.7422 4.4961-4.5273 7.6992-4.8906 8.2891-0.94531 16.637-1.4258 24.809-1.4258 8.168 0 16.516 0.48047 24.809 1.4258 3.2031 0.36328 6.0117 2.1484 7.6992 4.8945 4.4492 7.2227 7.3047 13.621 8.9648 20.121 0.43359 1.7031-0.59375 3.4375-2.2969 3.875-1.7031 0.43359-3.4375-0.59375-3.8711-2.2969-1.5-5.8633-4.1133-11.699-8.2188-18.363-0.66016-1.0703-1.7539-1.7656-3.0039-1.9062-8.0469-0.91797-16.148-1.3828-24.078-1.3828s-16.031 0.46484-24.086 1.3828c-1.2461 0.14453-2.3398 0.83594-3 1.9062-4.1094 6.6641-6.7188 12.5-8.2188 18.363-0.37109 1.4375-1.6641 2.3984-3.0859 2.3984z"/>
 </g>
</svg>
