<svg width="102" height="58" viewBox="0 0 102 58" fill="none" xmlns="http://www.w3.org/2000/svg">
<g filter="url(#filter0_i_9720_114814)">
<rect width="14.4" height="24" transform="matrix(-1 0 0 1 50.3984 5)" fill="#674CED" fill-opacity="0.16"/>
</g>
<g filter="url(#filter1_i_9720_114814)">
<rect width="14.4" height="24" transform="matrix(-1 0 0 1 66.7969 5)" fill="#674CED" fill-opacity="0.16"/>
</g>
<path d="M0 30.3984H38.4375H84.5889H102.01" stroke="#744CED" stroke-width="1.2" stroke-dasharray="5.09 5.09"/>
<path d="M33 0.299999C33 0.134313 33.1343 0 33.3 0C33.4657 0 33.6 0.134315 33.6 0.3V57.6H33V0.299999Z" fill="#C12017"/>
<path d="M16 31H30.4V52.7205C30.4 53.9794 29.3794 55 28.1205 55H18.2795C17.0206 55 16 53.9794 16 52.7205V31Z" fill="#05A8FA"/>
<defs>
<filter id="filter0_i_9720_114814" x="36" y="5" width="14.3984" height="24" filterUnits="userSpaceOnUse" color-interpolation-filters="sRGB">
<feFlood flood-opacity="0" result="BackgroundImageFix"/>
<feBlend mode="normal" in="SourceGraphic" in2="BackgroundImageFix" result="shape"/>
<feColorMatrix in="SourceAlpha" type="matrix" values="0 0 0 0 0 0 0 0 0 0 0 0 0 0 0 0 0 0 127 0" result="hardAlpha"/>
<feOffset dy="1.42471"/>
<feComposite in2="hardAlpha" operator="arithmetic" k2="-1" k3="1"/>
<feColorMatrix type="matrix" values="0 0 0 0 0.403 0 0 0 0 0.2976 0 0 0 0 0.93 0 0 0 1 0"/>
<feBlend mode="normal" in2="shape" result="effect1_innerShadow_9720_114814"/>
</filter>
<filter id="filter1_i_9720_114814" x="52.3984" y="5" width="14.3984" height="24" filterUnits="userSpaceOnUse" color-interpolation-filters="sRGB">
<feFlood flood-opacity="0" result="BackgroundImageFix"/>
<feBlend mode="normal" in="SourceGraphic" in2="BackgroundImageFix" result="shape"/>
<feColorMatrix in="SourceAlpha" type="matrix" values="0 0 0 0 0 0 0 0 0 0 0 0 0 0 0 0 0 0 127 0" result="hardAlpha"/>
<feOffset dy="1.42471"/>
<feComposite in2="hardAlpha" operator="arithmetic" k2="-1" k3="1"/>
<feColorMatrix type="matrix" values="0 0 0 0 0.403 0 0 0 0 0.2976 0 0 0 0 0.93 0 0 0 1 0"/>
<feBlend mode="normal" in2="shape" result="effect1_innerShadow_9720_114814"/>
</filter>
</defs>
</svg>
