<svg width="102" height="73" viewBox="0 0 102 73" fill="none" xmlns="http://www.w3.org/2000/svg">
<g filter="url(#filter0_i_10891_41089)">
<rect width="14" height="44" transform="matrix(-1 0 0 1 50 0)" fill="#674CED" fill-opacity="0.16"/>
</g>
<g filter="url(#filter1_i_10891_41089)">
<rect width="14" height="44" transform="matrix(-1 0 0 1 66 0)" fill="#674CED" fill-opacity="0.16"/>
</g>
<path d="M0 45.4004H38.4375H84.5889H102.01" stroke="#744CED" stroke-width="1.2" stroke-dasharray="5.09 5.09"/>
<path d="M33 15.3C33 15.1343 33.1343 15 33.3 15V15C33.4657 15 33.6 15.1343 33.6 15.3V72.6H33V15.3Z" fill="#C12017"/>
<path d="M16 46H30.4V67.7205C30.4 68.9794 29.3794 70 28.1205 70H18.2795C17.0206 70 16 68.9794 16 67.7205V46Z" fill="#05A8FA"/>
<defs>
<filter id="filter0_i_10891_41089" x="36" y="0" width="14" height="44" filterUnits="userSpaceOnUse" color-interpolation-filters="sRGB">
<feFlood flood-opacity="0" result="BackgroundImageFix"/>
<feBlend mode="normal" in="SourceGraphic" in2="BackgroundImageFix" result="shape"/>
<feColorMatrix in="SourceAlpha" type="matrix" values="0 0 0 0 0 0 0 0 0 0 0 0 0 0 0 0 0 0 127 0" result="hardAlpha"/>
<feOffset dy="1.42471"/>
<feComposite in2="hardAlpha" operator="arithmetic" k2="-1" k3="1"/>
<feColorMatrix type="matrix" values="0 0 0 0 0.403 0 0 0 0 0.2976 0 0 0 0 0.93 0 0 0 1 0"/>
<feBlend mode="normal" in2="shape" result="effect1_innerShadow_10891_41089"/>
</filter>
<filter id="filter1_i_10891_41089" x="52" y="0" width="14" height="44" filterUnits="userSpaceOnUse" color-interpolation-filters="sRGB">
<feFlood flood-opacity="0" result="BackgroundImageFix"/>
<feBlend mode="normal" in="SourceGraphic" in2="BackgroundImageFix" result="shape"/>
<feColorMatrix in="SourceAlpha" type="matrix" values="0 0 0 0 0 0 0 0 0 0 0 0 0 0 0 0 0 0 127 0" result="hardAlpha"/>
<feOffset dy="1.42471"/>
<feComposite in2="hardAlpha" operator="arithmetic" k2="-1" k3="1"/>
<feColorMatrix type="matrix" values="0 0 0 0 0.403 0 0 0 0 0.2976 0 0 0 0 0.93 0 0 0 1 0"/>
<feBlend mode="normal" in2="shape" result="effect1_innerShadow_10891_41089"/>
</filter>
</defs>
</svg>
