<?xml version="1.0" encoding="UTF-8"?>
<svg width="48px" height="48px" viewBox="0 0 48 48" version="1.1" xmlns="http://www.w3.org/2000/svg" xmlns:xlink="http://www.w3.org/1999/xlink">
    <title>Icons/Tritone/Automatic_default</title>
    <g id="List" stroke="none" stroke-width="1" fill="none" fill-rule="evenodd">
        <g id="Create-campaign---Step-3" transform="translate(-805.000000, -867.000000)" fill="#674CED" fill-rule="nonzero">
            <g id="Optimization" transform="translate(649.000000, 498.000000)">
                <g id="Campaigns" transform="translate(0.000000, 106.000000)">
                    <g id="Icons/Tritone/Automatic_default" transform="translate(156.000000, 263.000000)">
                        <circle id="Oval" fill-opacity="0.1" cx="24" cy="24" r="24"></circle>
                        <path d="M29.56416,20.13312 C30.50592,21.0744 30.48432,22.60752 29.56416,23.5272 L25.83072,27.26064 L20.73936,22.16976 L24.4728,18.43632 C25.3968,17.51376 26.92176,17.49168 27.86688,18.43632 L29.56416,20.13312 Z" id="Path" fill-opacity="0.4"></path>
                        <path d="M25.83072,27.26064 L16.38624,36.70176 C15.4152,37.67184 13.87728,37.70784 12.9408,36.77136 L11.22624,35.05776 C10.29408,34.1256 10.32912,32.57952 11.29584,31.61328 L20.72928,22.1832 L25.83072,27.26064 L25.83072,27.26064 Z" id="Path"></path>
                        <path d="M18.99024,16.04976 L16.96224,15.25008 C16.10784,14.91312 16.104,14.36832 16.96224,14.02992 L18.99024,13.23024 L19.78992,11.20224 C20.12688,10.34784 20.67168,10.344 21.01008,11.20224 L21.80976,13.23024 L23.83776,14.02992 C24.69216,14.36688 24.696,14.91168 23.83776,15.25008 L21.80976,16.04976 L21.01008,18.07776 C20.67312,18.93216 20.12832,18.936 19.78992,18.07776 L18.99024,16.04976 Z M31.95024,16.04976 L29.92224,15.25008 C29.06784,14.91312 29.064,14.36832 29.92224,14.02992 L31.95024,13.23024 L32.74992,11.20224 C33.08688,10.34784 33.63168,10.344 33.97008,11.20224 L34.76976,13.23024 L36.79776,14.02992 C37.65216,14.36688 37.656,14.91168 36.79776,15.25008 L34.76976,16.04976 L33.97008,18.07776 C33.63312,18.93216 33.08832,18.936 32.74992,18.07776 L31.95024,16.04976 Z M31.95024,29.48976 L29.92224,28.69008 C29.06784,28.35312 29.064,27.80832 29.92224,27.46992 L31.95024,26.67024 L32.74992,24.64224 C33.08688,23.78784 33.63168,23.784 33.97008,24.64224 L34.76976,26.67024 L36.79776,27.46992 C37.65216,27.80688 37.656,28.35168 36.79776,28.69008 L34.76976,29.48976 L33.97008,31.51776 C33.63312,32.37216 33.08832,32.376 32.74992,31.51776 L31.95024,29.48976 L31.95024,29.48976 Z" id="Shape"></path>
                    </g>
                </g>
            </g>
        </g>
    </g>
</svg>