<svg xmlns="http://www.w3.org/2000/svg" width="32" height="32" viewBox="0 0 32 32">
    <g fill="#0EC76A" fill-rule="nonzero">
        <circle cx="16" cy="16" r="16" fill-opacity=".11"/>
        <path d="M20.48 18.208c0 1.857-1.213 3.278-3.672 3.53v.852a.78.78 0 0 1-.774.77c-.472 0-.826-.351-.826-.77v-.836c-1.347-.117-2.997-.636-3.52-1.455a1.008 1.008 0 0 1-.168-.535c0-.62.522-1.104 1.112-1.104.236 0 .454.067.656.2a4.94 4.94 0 0 0 1.92.786v-2.642c-1.734-.435-3.62-1.07-3.62-3.346 0-1.69 1.347-3.128 3.62-3.362V9.41c0-.419.354-.77.826-.77a.78.78 0 0 1 .774.77v.92c.994.116 2.426.501 2.914 1.22.101.15.169.335.169.519 0 .636-.607 1.087-1.196 1.087-.101 0-.203-.016-.32-.05-.489-.134-1.044-.518-1.567-.636v2.359c1.735.435 3.672 1.104 3.672 3.379zm-5.272-3.797v-2.04c-.757.1-1.179.518-1.179 1.087 0 .484.472.752 1.18.953zm2.847 4.065c0-.552-.523-.837-1.247-1.07v2.24c.826-.167 1.247-.652 1.247-1.17z"/>
    </g>
</svg>
