<?xml version="1.0" encoding="UTF-8"?>
<svg width="48px" height="48px" viewBox="0 0 48 48" version="1.1" xmlns="http://www.w3.org/2000/svg" xmlns:xlink="http://www.w3.org/1999/xlink">
    <title>Icons/Tritone/Manual_default</title>
    <g id="List" stroke="none" stroke-width="1" fill="none" fill-rule="evenodd">
        <g id="Create-campaign---Step-3" transform="translate(-1189.000000, -628.000000)" fill="#05A8FA" fill-rule="nonzero">
            <g id="Optimization" transform="translate(649.000000, 498.000000)">
                <g id="Social" transform="translate(384.000000, 106.000000)">
                    <g id="Icons/Tritone/Manual_default" transform="translate(156.000000, 24.000000)">
                        <circle id="Oval" fill-opacity="0.1" cx="24" cy="24" r="24"></circle>
                        <path d="M18.72,11.98944 L18.72,22.09344 L12.24048,31.53504 C9.45696,35.59104 11.18688,38.88 16.10496,38.88 L31.89504,38.88 C36.8136,38.88 38.54304,35.592 35.75904,31.53504 L29.28,22.09344 L29.28,11.98944 C29.8311185,11.912691 30.2410012,11.440916 30.24,10.88448 L30.24,10.71552 C30.2406374,10.4198866 30.1236441,10.1361432 29.9148244,9.92687337 C29.7060048,9.71760351 29.4225141,9.6 29.12688,9.6 L18.8736,9.6 C18.577922,9.6 18.2943821,9.71758846 18.0854863,9.92684442 C17.8765905,10.1361004 17.7594902,10.4198424 17.76,10.71552 L17.76,10.88448 C17.76,11.45088 18.1776,11.91504 18.72,11.98944 Z" id="Path" fill-opacity="0.4"></path>
                        <path d="M29.28,26.88 L33.09408,32.748 C34.43376,34.80912 33.52608,36.48 31.06368,36.48 L16.93632,36.48 C14.47536,36.48 13.5672,34.80768 14.9064,32.748 L18.72,26.88 C18.72,26.88 21.26928,29.0568 24,27.36 C26.73216,25.63104 29.28,26.88 29.28,26.88 Z M24.96,18.72 C23.8996133,18.72 23.04,17.8603867 23.04,16.8 C23.04,15.7396133 23.8996133,14.88 24.96,14.88 C26.0203867,14.88 26.88,15.7396133 26.88,16.8 C26.88,17.8603867 26.0203867,18.72 24.96,18.72 Z M22.56,24.96 C21.76471,24.96 21.12,24.31529 21.12,23.52 C21.12,22.72471 21.76471,22.08 22.56,22.08 C23.35529,22.08 24,22.72471 24,23.52 C24,24.31529 23.35529,24.96 22.56,24.96 Z" id="Shape"></path>
                    </g>
                </g>
            </g>
        </g>
    </g>
</svg>