<svg width="41" height="40" viewBox="0 0 41 40" fill="none" xmlns="http://www.w3.org/2000/svg">
    <circle cx="20.123" cy="19.998" r="19.998" fill="#05A8FA" fill-opacity="0.11"/>
    <path d="M12.7575 19.144C13.0871 18.2617 13.6965 17.5223 14.4578 16.9678L15.7643 16.0162C16.1163 15.7599 16.402 15.4231 16.5976 15.034L16.8571 14.5177C17.0239 14.1859 17.0109 13.7921 16.8226 13.4719L15.3599 10.9852C14.9309 10.2561 15.4567 9.33691 16.3026 9.33691H23.7387C24.5736 9.33691 25.1006 10.2345 24.6939 10.9636L23.2713 13.5136C23.1027 13.8158 23.0871 14.1801 23.2292 14.4957L23.4202 14.9197C23.6283 15.3815 23.9606 15.7765 24.38 16.0606L25.6958 16.9517C26.5282 17.5154 27.1939 18.2951 27.5425 19.2381C28.0331 20.5652 28.6895 22.6366 28.8827 24.6497C29.0181 26.0603 28.9876 27.2149 28.9083 28.0743C28.8081 29.1616 27.9063 29.9199 26.8187 30.0167C25.0162 30.1771 22.2123 30.392 20.1325 30.392C18.0528 30.392 15.2489 30.1771 13.4464 30.0167C12.3588 29.9199 11.457 29.1616 11.3567 28.0743C11.2775 27.2149 11.247 26.0603 11.3824 24.6497C11.5802 22.5885 12.2637 20.466 12.7575 19.144Z"
          fill="#05A8FA" fill-opacity="0.25"/>
    <path d="M22.4725 20.577C22.4725 20.577 21.8566 19.7436 20.3889 19.7436C17.4719 19.7436 17.4719 23.0773 20.3889 23.0773C23.3059 23.0773 23.306 26.411 20.389 26.411C19.1388 26.411 18.3054 25.5776 18.3054 25.5776M20.3889 18.9102V27.2445"
          stroke="#05A8FA" stroke-width="1.25003" stroke-linecap="round" stroke-linejoin="round"/>
    <path d="M16.5391 13.9663C16.5391 13.6881 16.6952 13.4629 16.8886 13.4629H23.1904C23.3833 13.4633 23.5397 13.6885 23.5399 13.9663V14.4711C23.54 14.6046 23.5032 14.7327 23.4376 14.8271C23.3721 14.9215 23.2831 14.9746 23.1904 14.9745H16.8886C16.6956 14.9741 16.5393 14.7489 16.5391 14.4711V13.9663Z"
          fill="#05A8FA"/>
</svg>
