<svg width="48" height="48" viewBox="0 0 48 48" fill="none" xmlns="http://www.w3.org/2000/svg">
    <circle cx="24" cy="24" r="24" fill="#D564ED" fill-opacity="0.12"/>
    <path d="M25.44 19.8889V16.4657C25.4382 15.6566 24.7944 15.0013 24 15C23.2066 15 22.56 15.6561 22.56 16.4657V19.8889H16.1582C13.8408 19.8889 12 21.8767 12 24.2889V37H14.88V24.2889C14.88 23.4597 15.4704 22.8222 16.1582 22.8222H22.56V32.1121C22.5618 32.9212 23.2056 33.5764 24 33.5778C24.7934 33.5778 25.44 32.9217 25.44 32.1121V22.8222H31.8418C32.5282 22.8222 33.12 23.4607 33.12 24.2889V37H36V24.2889C36 21.8777 34.1573 19.8889 31.8418 19.8889H25.44Z" fill="#D564ED" fill-opacity="0.4"/>
    <path fill-rule="evenodd" clip-rule="evenodd" d="M19.6552 12.2787C19.6552 14.6417 21.6004 16.5574 24 16.5574C26.3996 16.5574 28.3448 14.6417 28.3448 12.2787C28.3448 9.91563 26.3996 8 24 8C21.6004 8 19.6552 9.91563 19.6552 12.2787ZM20.6207 33.6721C20.6207 35.5101 22.1337 37 24 37C25.8663 37 27.3793 35.5101 27.3793 33.6721C27.3793 31.8342 25.8663 30.3443 24 30.3443C22.1337 30.3443 20.6207 31.8342 20.6207 33.6721ZM13.3793 37C11.513 37 10 35.5101 10 33.6721C10 31.8342 11.513 30.3443 13.3793 30.3443C15.2457 30.3443 16.7586 31.8342 16.7586 33.6721C16.7586 35.5101 15.2457 37 13.3793 37ZM31.2414 33.6721C31.2414 35.5101 32.7543 37 34.6207 37C36.487 37 38 35.5101 38 33.6721C38 31.8342 36.487 30.3443 34.6207 30.3443C32.7543 30.3443 31.2414 31.8342 31.2414 33.6721Z" fill="#D564ED"/>
</svg>
