<svg width="24" height="24" viewBox="0 0 24 24" fill="none" xmlns="http://www.w3.org/2000/svg">
<path d="M8 11.857L10.5 14.357L15.857 9" stroke="#888888" stroke-width="1.5" stroke-linecap="round" stroke-linejoin="round"/>
<path d="M21.7717 14.1817C21.9317 13.4817 22.0117 12.7517 22.0117 12.0117C22.0117 11.2717 21.9217 10.5417 21.7717 9.84172M3.58172 17.3717C4.37172 18.6017 5.41172 19.6517 6.65172 20.4417M9.84172 21.7717C10.5417 21.9317 11.2717 22.0117 12.0117 22.0117C12.7517 22.0117 13.4817 21.9217 14.1817 21.7717M17.3717 20.4417C18.6017 19.6517 19.6517 18.6117 20.4417 17.3717M6.65172 3.58172C5.42172 4.37172 4.37172 5.41172 3.58172 6.65172M2.25172 9.84172C2.09172 10.5417 2.01172 11.2717 2.01172 12.0117C2.01172 12.7517 2.10172 13.4817 2.25172 14.1817M14.1817 2.25172C13.4817 2.09172 12.7517 2.01172 12.0117 2.01172C11.2717 2.01172 10.5417 2.10172 9.84172 2.25172M20.4417 6.65172C19.6517 5.42172 18.6117 4.37172 17.3717 3.58172" stroke="#888888" stroke-width="1.5" stroke-linecap="round" stroke-linejoin="round"/>
</svg>
