<svg xmlns="http://www.w3.org/2000/svg" width="11" height="10" viewBox="0 0 11 10" fill="none">
    <path d="M5.07193 3.93919L1.86683 0.734085L1.20588 0.0731268C1.10837 -0.0243759 0.94993 -0.0243759 0.852427 0.0731268L0.145217 0.780336C0.0477141 0.877839 0.0477141 1.03628 0.145217 1.13379L4.01128 4.99984L0.144905 8.8659C0.0474016 8.96341 0.0474016 9.12185 0.144905 9.21935L0.852114 9.92687C0.949617 10.0244 1.10806 10.0244 1.20556 9.92687L5.07193 6.0605L8.93799 9.92687C9.0355 10.0244 9.19394 10.0244 9.29144 9.92687L9.99865 9.21966C10.0962 9.12216 10.0962 8.96372 9.99865 8.86621L6.13259 4.99984L9.33769 1.79474L9.99865 1.13379C10.0962 1.03628 10.0962 0.877839 9.99865 0.780336L9.29144 0.0731268C9.19394 -0.0243759 9.0355 -0.0243759 8.93799 0.0731268L5.07193 3.93919Z" fill="#151519"/>
</svg>