<?xml version="1.0" encoding="UTF-8"?>
<svg width="16px" height="16px" viewBox="0 0 16 16" version="1.1" xmlns="http://www.w3.org/2000/svg" xmlns:xlink="http://www.w3.org/1999/xlink">
    <title>BD37A69E-39A5-47E5-809D-B0048ACD0D28</title>
    <g id="🖥-Screens" stroke="none" stroke-width="1" fill="none" fill-rule="evenodd">
        <g id="Campaign-Details-v5---Improvements" transform="translate(-1320.000000, -997.000000)" fill="#A0A2AD" fill-rule="nonzero">
            <g id="Row" transform="translate(266.000000, 560.000000)">
                <g id="Group-4" transform="translate(24.000000, 179.000000)">
                    <g id="Row-2" transform="translate(0.000000, 43.000000)">
                        <g id="Row" transform="translate(0.000000, 192.000000)">
                            <g id="Icons/Basic/Comment" transform="translate(1022.000000, 15.000000)">
                                <g id="comment-alt-lines-3" transform="translate(8.000000, 8.000000)">
                                    <path d="M14,0 L2,0 C0.896875,0 0,0.896875 0,2 L0,11 C0,12.103125 0.896875,13 2,13 L5,13 L5,15.625 C5,15.846875 5.18125,16 5.375,16 C5.45,16 5.528125,15.978125 5.596875,15.925 L9.5,13 L14,13 C15.103125,13 16,12.103125 16,11 L16,2 C16,0.896875 15.103125,0 14,0 Z M14.5,11 C14.5,11.275 14.275,11.5 14,11.5 L9,11.5 L8.6,11.8 L6.5,13.375 L6.5,11.5 L2,11.5 C1.725,11.5 1.5,11.275 1.5,11 L1.5,2 C1.5,1.725 1.725,1.5 2,1.5 L14,1.5 C14.275,1.5 14.5,1.725 14.5,2 L14.5,11 Z M11.5,4.25 L4.5,4.25 C4.225,4.25 4,4.475 4,4.75 L4,5.25 C4,5.525 4.225,5.75 4.5,5.75 L11.5,5.75 C11.775,5.75 12,5.525 12,5.25 L12,4.75 C12,4.475 11.775,4.25 11.5,4.25 Z M8.5,7.25 L4.5,7.25 C4.225,7.25 4,7.475 4,7.75 L4,8.25 C4,8.525 4.225,8.75 4.5,8.75 L8.5,8.75 C8.775,8.75 9,8.525 9,8.25 L9,7.75 C9,7.475 8.775,7.25 8.5,7.25 Z" id="Shape"></path>
                                </g>
                            </g>
                        </g>
                    </g>
                </g>
            </g>
        </g>
    </g>
</svg>