<?xml version="1.0" encoding="UTF-8"?>
<svg width="100pt" height="100pt" version="1.1" viewBox="0 0 100 100" xmlns="http://www.w3.org/2000/svg">
 <g>
  <path d="m42.363 81.789v-7.7344-1.125c0-1.0547-0.89844-1.9531-1.9531-1.9531h-11.008-17.402-3.9766c0.65625 0.65625 1.2969 1.2969 1.9531 1.9531v-11.953-1.6797c-0.65625 0.65625-1.2969 1.2969-1.9531 1.9531h11.008 17.402 3.9766c1.0547 0 1.9531-0.89844 1.9531-1.9531v-7.7344-1.125c-1.1133 0.46094-2.2266 0.91797-3.3281 1.375 2.168 1.7695 4.3359 3.543 6.5039 5.3125 3.4297 2.8047 6.8672 5.6055 10.293 8.4062 0.78906 0.65625 1.5938 1.2969 2.3828 1.9531v-2.7656c-2.168 1.7695-4.3359 3.543-6.5039 5.3125-3.4297 2.8047-6.8672 5.6055-10.293 8.4062-0.78906 0.65625-1.5938 1.2969-2.3828 1.9531-0.78906 0.64453-0.72266 2.1016 0 2.7656 0.83984 0.77344 1.9141 0.69531 2.7656 0 2.168-1.7695 4.3359-3.543 6.5039-5.3125 3.4297-2.8047 6.8672-5.6055 10.293-8.4062 0.78906-0.65625 1.5938-1.2969 2.3828-1.9531 0.76172-0.625 0.76172-2.1406 0-2.7656-2.168-1.7695-4.3359-3.543-6.5039-5.3125-3.4297-2.8047-6.8672-5.6055-10.293-8.4062-0.78906-0.65625-1.5938-1.2969-2.3828-1.9531-0.625-0.50781-1.3477-0.73438-2.1289-0.39844-0.71094 0.30469-1.2031 1.0078-1.2031 1.7891v7.7344 1.125l1.9531-1.9531h-11.008-17.402-3.9766c-1.0547 0-1.9531 0.89844-1.9531 1.9531v11.953 1.6797c0 1.0547 0.89844 1.9531 1.9531 1.9531h11.008 17.402 3.9766c-0.65625-0.65625-1.2969-1.2969-1.9531-1.9531v7.7344 1.125c0 1.0234 0.89844 2 1.9531 1.9531 1.043-0.050782 1.9414-0.85938 1.9414-1.9531z"/>
  <path d="m61.543 49.562v-7.7344-1.125l-1.9531 1.9531h11.008 17.402 3.9766c1.0547 0 1.9531-0.89844 1.9531-1.9531v-11.953-1.6797c0-1.0547-0.89844-1.9531-1.9531-1.9531h-11.008-17.402-3.9766c0.65625 0.65625 1.2969 1.2969 1.9531 1.9531v-7.7344-1.125c0-0.78125-0.48828-1.4844-1.2031-1.7891-0.77344-0.32031-1.5039-0.10938-2.1289 0.39844-2.168 1.7695-4.3359 3.543-6.5039 5.3125-3.4297 2.8047-6.8672 5.6055-10.293 8.4062-0.78906 0.65625-1.5938 1.2969-2.3828 1.9531-0.76172 0.625-0.76172 2.1406 0 2.7656 2.168 1.7695 4.3359 3.543 6.5039 5.3125 3.4297 2.8047 6.8672 5.6055 10.293 8.4062 0.78906 0.65625 1.5938 1.2969 2.3828 1.9531 0.78906 0.64453 2 0.82812 2.7656 0 0.65625-0.71094 0.84766-2.0703 0-2.7656-2.168-1.7695-4.3359-3.543-6.5039-5.3125-3.4297-2.8047-6.8672-5.6055-10.293-8.4062-0.78906-0.65625-1.5938-1.2969-2.3828-1.9531v2.7656c2.168-1.7695 4.3359-3.543 6.5039-5.3125 3.4297-2.8047 6.8672-5.6055 10.293-8.4062 0.78906-0.65625 1.5938-1.2969 2.3828-1.9531-1.1133-0.46094-2.2266-0.91797-3.3281-1.375v7.7344 1.125c0 1.0547 0.89844 1.9531 1.9531 1.9531h11.008 17.402 3.9766c-0.65625-0.65625-1.2969-1.2969-1.9531-1.9531v11.953 1.6797l1.9531-1.9531h-11.008-17.402-3.9766c-1.0547 0-1.9531 0.89844-1.9531 1.9531v7.7344 1.125c0 1.0234 0.89844 2 1.9531 1.9531 1.0547-0.050781 1.9414-0.85938 1.9414-1.9531z"/>
 </g>
</svg>
