<?xml version="1.0" encoding="UTF-8"?>
<svg width="20px" height="16px" viewBox="0 0 20 16" version="1.1" xmlns="http://www.w3.org/2000/svg" xmlns:xlink="http://www.w3.org/1999/xlink">
    <!-- Generator: sketchtool 64 (101010) - https://sketch.com -->
    <title>CFF47C81-F3BE-4C92-8E01-B3C382C3A619</title>
    <desc>Created with sketchtool.</desc>
    <g id="🖥-Screens" stroke="none" stroke-width="1" fill="none" fill-rule="evenodd">
        <g id="KPI-List---Bulk-actions" transform="translate(-362.000000, -316.000000)" fill="#B7BAC7" fill-rule="nonzero">
            <g id="Table" transform="translate(266.000000, 300.000000)">
                <g id="Labels">
                    <g id="Icons/Basic/Compare" transform="translate(90.000000, 8.000000)">
                        <g id="balance-scale-3" transform="translate(6.000000, 8.000000)">
                            <path d="M8,10.5 L7.999375,10.5 C7.999375,9.994375 8.04125,10.2271875 5.3415625,4.8278125 C5.065625,4.27625 4.5325,4 3.999375,4 C3.466875,4 2.934375,4.275625 2.658125,4.8278125 C-0.064375,10.2734375 0.000625,10.0103125 0.000625,10.5 L0,10.5 C0,11.880625 1.7909375,13 4,13 C6.2090625,13 8,11.880625 8,10.5 Z M2.60125,8.2853125 C2.9575,7.5775 3.414375,6.67 3.990625,5.5009375 C3.9915625,5.500625 3.9946875,5.5 3.9996875,5.5 L4.0003125,5.49875 C4.6196875,6.7375 5.095,7.6803125 5.4596875,8.40375 C5.8121875,9.103125 6.0753125,9.62625 6.258125,10 L1.7446875,10 C1.9384375,9.60375 2.2209375,9.0409375 2.60125,8.2853125 Z M16.5,14.5 L10.75,14.5 L10.75,4.8728125 C11.606875,4.601875 12.2684375,3.8928125 12.4496875,3 L16.5,3 C16.77625,3 17,2.77625 17,2.5 L17,2 C17,1.72375 16.77625,1.5 16.5,1.5 L12.2890625,1.5 C11.9028125,0.6178125 11.0246875,0 10,0 C8.9753125,0 8.0971875,0.6178125 7.7109375,1.5 L3.5,1.5 C3.22375,1.5 3,1.72375 3,2 L3,2.5 C3,2.77625 3.22375,3 3.5,3 L7.5503125,3 C7.7315625,3.8928125 8.393125,4.601875 9.25,4.8728125 L9.25,14.5 L3.5,14.5 C3.22375,14.5 3,14.72375 3,15 L3,15.5 C3,15.77625 3.22375,16 3.5,16 L16.5,16 C16.77625,16 17,15.77625 17,15.5 L17,15 C17,14.72375 16.77625,14.5 16.5,14.5 Z M10,3.5 C9.44875,3.5 9,3.05125 9,2.5 C9,1.94875 9.44875,1.5 10,1.5 C10.55125,1.5 11,1.94875 11,2.5 C11,3.05125 10.55125,3.5 10,3.5 Z M19.999375,10.5 C19.999375,9.994375 20.04125,10.2271875 17.3415625,4.8278125 C17.065625,4.27625 16.5325,4 15.999375,4 C15.466875,4 14.934375,4.275625 14.658125,4.8278125 C11.935625,10.2734375 12.000625,10.0103125 12.000625,10.5 L12,10.5 C12,11.880625 13.7909375,13 16,13 C18.2090625,13 20,11.880625 20,10.5 L19.999375,10.5 Z M13.7446875,10 C13.938125,9.60375 14.220625,9.0409375 14.6009375,8.2853125 C14.9571875,7.5775 15.4140625,6.67 15.9903125,5.5009375 C15.99125,5.500625 15.994375,5.5 15.999375,5.5 L16,5.49875 C16.619375,6.7375 17.0946875,7.6803125 17.459375,8.40375 C17.811875,9.103125 18.075,9.62625 18.2578125,10 L13.7446875,10 L13.7446875,10 Z" id="Shape"></path>
                        </g>
                    </g>
                </g>
            </g>
        </g>
    </g>
</svg>