<svg width="16" height="16" viewBox="0 0 16 16" fill="none" xmlns="http://www.w3.org/2000/svg">
<path fill-rule="evenodd" clip-rule="evenodd" d="M14.5 0H4.5C3.67156 0 3 0.671562 3 1.5V3H1.5C0.671562 3 0 3.67156 0 4.5V14.5C0 15.3284 0.671562 16 1.5 16H11.5C12.3284 16 13 15.3284 13 14.5V13H14.5C15.3284 13 16 12.3284 16 11.5V1.5C16 0.671562 15.3284 0 14.5 0ZM11.3125 14.5H1.6875C1.58395 14.5 1.5 14.4161 1.5 14.3125V4.6875C1.5 4.58395 1.58395 4.5 1.6875 4.5H3V11.5C3 12.3284 3.67156 13 4.5 13H11.5V14.3125C11.5 14.4161 11.4161 14.5 11.3125 14.5ZM4.6875 11.5H14.3125C14.4161 11.5 14.5 11.4161 14.5 11.3125V1.6875C14.5 1.58395 14.4161 1.5 14.3125 1.5H4.6875C4.58395 1.5 4.5 1.58395 4.5 1.6875V11.3125C4.5 11.4161 4.58395 11.5 4.6875 11.5Z" fill="#A0A2AD"/>
</svg>
