    <svg
      xmlns="http://www.w3.org/2000/svg"
      viewBox="0 0 20 20"
    >
      <path
        d="M17.6,2.7h-1.7v2.4c0,0.8-0.6,1.4-1.4,1.4h-0.4c-0.8,0-1.4-0.6-1.4-1.4V2.7H7.5v2.4c0,0.8-0.6,1.4-1.4,1.4H5.7
	C5,6.5,4.3,5.9,4.3,5.1V2.7H2.4c-0.6,0-1,0.5-1,1.1v13.8c0,0.6,0.5,1.1,1,1.1h15.2c0.6,0,1-0.5,1-1.1V3.7
	C18.6,3.2,18.2,2.7,17.6,2.7z M17.2,16.4c0,0.4-0.3,0.8-0.8,0.8H3.6c-0.4,0-0.8-0.3-0.8-0.8V8.6c0-0.4,0.3-0.8,0.8-0.8h12.8
	c0.4,0,0.8,0.3,0.8,0.8V16.4z"
      />
      <path
        d="M5.7,5.9h0.4c0.4,0,0.8-0.4,0.8-0.8V2.2c0-0.4-0.3-0.8-0.8-0.8H5.7c-0.4,0-0.8,0.4-0.8,0.8v2.9
	C4.9,5.5,5.3,5.9,5.7,5.9z"
      />
      <path
        d="M14.1,5.9h0.4c0.4,0,0.8-0.4,0.8-0.8V2.2c0-0.4-0.3-0.8-0.8-0.8h-0.4c-0.4,0-0.8,0.4-0.8,0.8v2.9
	C13.3,5.5,13.7,5.9,14.1,5.9z"
      />
      <rect x="4.1" y="9.4" width="3" height="2.6" />
      <rect x="4.1" y="13.1" width="3" height="2.6" />
      <rect x="8.5" y="9.4" width="3" height="2.6" />
      <rect x="8.5" y="13.1" width="3" height="2.6" />
      <rect x="13" y="9.4" width="3" height="2.6" />
      <rect x="13" y="13.1" width="3" height="2.6" />
    </svg>