<svg width="24" height="24" viewBox="0 0 24 24" fill="none" xmlns="http://www.w3.org/2000/svg">
<path fill-rule="evenodd" clip-rule="evenodd" d="M12 0C18.6274 0 24 5.37258 24 12C24 18.6274 18.6274 24 12 24C5.37258 24 0 18.6274 0 12C0 5.37258 5.37258 0 12 0Z" fill="#0EC76A" fill-opacity="0.11"/>
<path fill-rule="evenodd" clip-rule="evenodd" d="M15.5869 13.7677C15.5869 15.253 14.6167 16.3904 12.6496 16.5914V17.2736C12.6496 17.6082 12.3667 17.8893 12.0301 17.8893C11.6527 17.8893 11.3696 17.6082 11.3696 17.2736V16.6047C10.2918 16.511 8.97139 16.096 8.5536 15.4404C8.47296 15.3065 8.41895 15.1729 8.41895 15.0121C8.41895 14.517 8.83674 14.1289 9.30829 14.1289C9.49696 14.1289 9.67181 14.1827 9.8336 14.2897C10.2953 14.6056 10.8189 14.8199 11.3696 14.9184V12.8041C9.98208 12.4562 8.47296 11.9478 8.47296 10.1279C8.47296 8.77619 9.55072 7.62547 11.3696 7.43808V6.72896C11.3696 6.39437 11.6527 6.11328 12.0301 6.11328C12.3667 6.11328 12.6496 6.39437 12.6496 6.72896V7.46496C13.4447 7.5584 14.5901 7.86637 14.9807 8.4416C15.0614 8.56192 15.1154 8.70938 15.1154 8.85632C15.1154 9.36499 14.6303 9.72647 14.1587 9.72647C14.0778 9.72647 13.9969 9.7129 13.9027 9.68627C13.721 9.63649 13.5276 9.54328 13.3306 9.44836C13.1042 9.33923 12.873 9.22785 12.6496 9.1776V11.0643C14.0374 11.4125 15.5869 11.9475 15.5869 13.7677ZM11.3683 10.7302V9.09766C10.7621 9.17778 10.4252 9.51238 10.4252 9.96754C10.4252 10.3554 10.8025 10.5697 11.3683 10.7304V10.7302ZM12.6502 13.125C13.2295 13.3124 13.6473 13.5397 13.6473 13.9813C13.6473 14.3963 13.3107 14.7844 12.6502 14.918V13.125Z" fill="#0EC76A"/>
</svg>
