<svg width="10" height="16" viewBox="0 0 10 16" fill="none" xmlns="http://www.w3.org/2000/svg">
<path fill-rule="evenodd" clip-rule="evenodd" d="M9.48002 10.208C9.48002 12.0647 8.26722 13.4864 5.80834 13.7376V14.5904C5.80834 15.0087 5.45474 15.36 5.03394 15.36C4.56226 15.36 4.20834 15.0087 4.20834 14.5904V13.7543C2.86114 13.6371 1.21058 13.1184 0.68834 12.2989C0.58754 12.1315 0.52002 11.9645 0.52002 11.7635C0.52002 11.1447 1.04226 10.6595 1.6317 10.6595C1.86754 10.6595 2.0861 10.7267 2.28834 10.8605C2.86551 11.2554 3.51993 11.5233 4.20834 11.6464V9.00353C2.47394 8.56865 0.58754 7.93313 0.58754 5.65825C0.58754 3.96865 1.93474 2.53025 4.20834 2.29601V1.40961C4.20834 0.991375 4.56226 0.640015 5.03394 0.640015C5.45474 0.640015 5.80834 0.991375 5.80834 1.40961V2.32961C6.80226 2.44641 8.23394 2.83137 8.72226 3.55041C8.82306 3.70081 8.89058 3.88513 8.89058 4.06881C8.89058 4.70465 8.28418 5.15649 7.69474 5.15649C7.59362 5.15649 7.4925 5.13953 7.37474 5.10625C7.14757 5.04403 6.9058 4.92751 6.65958 4.80886C6.37654 4.67245 6.08763 4.53322 5.80834 4.47041V6.82881C7.54306 7.26401 9.48002 7.93281 9.48002 10.208ZM4.20834 6.41089V4.37025C3.45058 4.47041 3.02946 4.88865 3.02946 5.45761C3.02946 5.94241 3.50114 6.21025 4.20834 6.41121V6.41089ZM5.80834 9.40513C6.5325 9.63937 7.05474 9.92353 7.05474 10.4755C7.05474 10.9943 6.63394 11.4794 5.80834 11.6464V9.40513Z" fill="#0EC76A"/>
</svg>
