<?xml version="1.0" encoding="UTF-8"?>
<svg width="100pt" height="100pt" version="1.1" viewBox="0 0 100 100" xmlns="http://www.w3.org/2000/svg">
 <path d="m5 22v56c0 1.1055 0.89453 2 2 2h86c1.1055 0 2-0.89453 2-2v-56c0-1.1055-0.89453-2-2-2h-86c-1.1055 0-2 0.89453-2 2zm75.98 4.7148l-30.281 29.609c-0.39062 0.37891-1.0117 0.37891-1.3984 0l-30.281-29.609c-0.64062-0.625-0.19922-1.7148 0.69922-1.7148h60.562c0.89844 0 1.3398 1.0898 0.69922 1.7148zm-69.285-0.0625l19.785 19.246c0.37109 0.35937 0.40625 0.94531 0.078125 1.3477l-19.785 24.398c-0.58984 0.73047-1.7734 0.30859-1.7734-0.63281v-43.645c0-0.88281 1.0625-1.332 1.6953-0.71484zm5.1172 46.719l18.016-22.219c0.36719-0.45312 1.0391-0.49609 1.4648-0.097656l13.023 12.297c0.38672 0.36328 0.98828 0.36328 1.3711 0l13.023-12.297c0.42187-0.39844 1.0977-0.35547 1.4648 0.097656l18.012 22.219c0.53125 0.65234 0.066406 1.6289-0.77734 1.6289h-64.82c-0.84375 0-1.3086-0.97656-0.77734-1.6289zm71.41-1.7305l-19.785-24.398c-0.32422-0.40234-0.28906-0.98438 0.078125-1.3477l19.785-19.246c0.63672-0.61328 1.6992-0.16406 1.6992 0.71875v43.645c0 0.94141-1.1836 1.3633-1.7773 0.62891z"/>
</svg>
