<svg  viewBox="0 0 100 100" xmlns="http://www.w3.org/2000/svg">
 <path d="m29 79c1.0703 1.8516 3.043 2.9961 5.1797 3h30.68c2.125-0.019531 4.0781-1.1602 5.1406-3l15.34-26.52c1.0703-1.8555 1.0703-4.1445 0-6l-15.34-26.48c-1.0664-1.8477-3.0352-2.9922-5.1719-3h-30.609c-2.1523-0.007812-4.1445 1.1367-5.2188 3l-15.27 26.512c-1.0703 1.8555-1.0703 4.1406 0 6zm24-10.27c0 0.86719-0.34375 1.6992-0.95703 2.3125s-1.4453 0.95703-2.3125 0.95703h-0.44922c-0.87109 0.003906-1.7031-0.33984-2.3203-0.95312-0.61328-0.61328-0.96094-1.4492-0.96094-2.3164v-0.44922c-0.003906-0.87109 0.33984-1.7031 0.95312-2.3203 0.61328-0.61328 1.4492-0.96094 2.3164-0.96094h0.44922c0.87109-0.003906 1.7031 0.33984 2.3203 0.95312 0.61328 0.61328 0.96094 1.4492 0.96094 2.3164zm-5.7891-41.73h4.6484c0.90234 0 1.7656 0.375 2.3789 1.0391 0.61328 0.66406 0.92188 1.5508 0.85156 2.4492l-2.3281 25.512c-0.16406 1.6602-1.5586 2.9297-3.2266 2.9297-1.668 0-3.0664-1.2695-3.2266-2.9297l-2.3086-25.512c-0.070312-0.89453 0.23828-1.7812 0.84375-2.4414 0.60938-0.66406 1.4688-1.043 2.3672-1.0469z"/>
</svg>
