<?xml version="1.0" encoding="UTF-8"?>
<svg width="24px" height="24px" viewBox="0 0 24 24" version="1.1" xmlns="http://www.w3.org/2000/svg" xmlns:xlink="http://www.w3.org/1999/xlink">
    <title>C88E9364-D834-42C0-8850-CAF50FDB9DFF</title>
    <g id="List" stroke="none" stroke-width="1" fill="none" fill-rule="evenodd">
        <g id="Campaign-Details-v5---Improvements" transform="translate(-469.000000, -1023.000000)">
            <g id="Row" transform="translate(266.000000, 428.000000)">
                <g id="Buttons/Primary/Normal" transform="translate(179.000000, 586.000000)">
                    <g id="file-text" transform="translate(24.000000, 9.000000)">
                        <polygon id="Path" points="0 0 24 0 24 24 0 24"></polygon>
                        <path d="M14,3 L14,7 C14,7.55228475 14.4477153,8 15,8 L19,8" id="Path" stroke="#A0A2AD" stroke-width="1.5" stroke-linecap="round" stroke-linejoin="round"></path>
                        <path d="M17,21 L7,21 C5.8954305,21 5,20.1045695 5,19 L5,5 C5,3.8954305 5.8954305,3 7,3 L14,3 L19,8 L19,19 C19,20.1045695 18.1045695,21 17,21 Z" id="Path" stroke="#A0A2AD" stroke-width="1.5" stroke-linecap="round" stroke-linejoin="round"></path>
                        <line x1="9" y1="9" x2="10" y2="9" id="Path" stroke="#A0A2AD" stroke-width="1.5" stroke-linecap="round" stroke-linejoin="round"></line>
                        <line x1="9" y1="13" x2="15" y2="13" id="Path" stroke="#A0A2AD" stroke-width="1.5" stroke-linecap="round" stroke-linejoin="round"></line>
                        <line x1="9" y1="17" x2="15" y2="17" id="Path" stroke="#A0A2AD" stroke-width="1.5" stroke-linecap="round" stroke-linejoin="round"></line>
                    </g>
                </g>
            </g>
        </g>
    </g>
</svg>