<svg width="24" height="24" viewBox="0 0 24 24" fill="none" xmlns="http://www.w3.org/2000/svg">
<circle cx="12" cy="12" r="12" fill="#FDE8D3"/>
<path d="M12.0001 20.1601C15.9937 20.1601 18.2401 17.1908 18.2401 13.0328C18.2401 7.11345 10.7001 3.84009 10.7001 3.84009C10.7001 3.84009 11.1906 6.35217 9.67045 8.17761C8.15053 10.003 5.76013 11.204 5.76013 14.3055C5.76013 17.4073 7.75693 20.1601 12.0001 20.1601Z" fill="#F6820D"/>
<path d="M12.202 9.54968C12.202 9.54968 14.4275 10.7886 15.5932 13.9026C16.7584 17.0166 14.5624 19.9198 12.1741 20.1709C10.5822 20.3382 8.42822 19.4091 8.40542 17.2878C8.39462 16.2872 8.96582 15.975 9.21038 14.978C9.4547 13.981 9.4355 13.1338 9.4355 13.1338C9.4355 13.1338 10.1404 13.4053 10.5769 14.0252C11.0135 14.6451 11.1597 15.5821 11.1597 15.5821C11.1597 15.5821 12.0945 15.08 12.4002 13.429C12.7057 11.7778 12.202 9.54968 12.202 9.54968V9.54968Z" fill="white" fill-opacity="0.4"/>
</svg>
