<svg width="32" height="32" viewBox="0 0 32 32" fill="none" xmlns="http://www.w3.org/2000/svg">
  <circle cx="16" cy="16" r="16" fill="#E6F9F0"/>
  <path d="M6.27497 21.4563C5.94089 20.4451 5.75977 19.0435 5.75977 17.92C5.75977 12.2646 10.3444 7.67999 15.9998 7.67999C21.6551 7.67999 26.2398 12.2646 26.2398 17.92C26.2398 19.0397 26.0599 20.4371 25.7278 21.4458C25.6318 21.7379 25.7278 21.4458 25.7278 21.4458C25.5476 21.92 24.9828 22.2154 24.4606 22.1168C24.4606 22.1168 21.7918 21.44 15.9998 21.44C10.2078 21.44 7.53897 22.1168 7.53897 22.1168C7.01929 22.2205 6.44265 21.9021 6.27497 21.4563C6.31049 21.5638 6.27497 21.4563 6.27497 21.4563Z" fill="#0EC76A" fill-opacity="0.3"/>
  <path fill-rule="evenodd" clip-rule="evenodd" d="M15.9994 11.84C15.2925 11.84 14.7194 11.267 14.7194 10.56C14.7194 9.8531 15.2925 9.28003 15.9994 9.28003C16.7063 9.28003 17.2794 9.8531 17.2794 10.56C17.2794 11.267 16.7063 11.84 15.9994 11.84ZM18.1168 20.0007C18.7734 20.9664 18.6933 22.2541 17.9219 23.131C17.1505 24.0078 15.8835 24.2514 14.842 23.7233C13.8004 23.1951 13.2483 22.029 13.4999 20.8886C13.7515 19.7481 14.743 18.9226 15.9101 18.8816L20.0323 11.5421C20.2747 11.1103 20.8116 10.9269 21.2628 11.1C21.6718 11.364 21.8369 11.9046 21.6298 12.3559L18.1168 20.0007ZM21.2628 11.1C21.2351 11.0821 21.2063 11.0655 21.1763 11.0503L21.3531 11.1401C21.3235 11.1251 21.2934 11.1117 21.2628 11.1ZM9.91937 12.8C9.91937 13.507 10.4925 14.08 11.1994 14.08C11.9063 14.08 12.4794 13.507 12.4794 12.8C12.4794 12.0931 11.9063 11.52 11.1994 11.52C10.4925 11.52 9.91937 12.0931 9.91937 12.8ZM8.63937 18.88C7.93245 18.88 7.35938 18.307 7.35938 17.6C7.35938 16.8931 7.93245 16.32 8.63937 16.32C9.3463 16.32 9.91937 16.8931 9.91937 17.6C9.91937 18.307 9.3463 18.88 8.63937 18.88ZM22.0794 17.6C22.0794 18.307 22.6525 18.88 23.3594 18.88C24.0663 18.88 24.6394 18.307 24.6394 17.6C24.6394 16.8931 24.0663 16.32 23.3594 16.32C22.6525 16.32 22.0794 16.8931 22.0794 17.6Z" fill="#0EC76A"/>
</svg>
