<svg width="32" height="32" viewBox="0 0 32 32" fill="none" xmlns="http://www.w3.org/2000/svg">
<circle cx="16" cy="16" r="16" fill="#0EC76A" fill-opacity="0.11"/>
<path fill-rule="evenodd" clip-rule="evenodd" d="M21.7157 12.6392C21.7157 16.0116 22.4792 17.0066 23.4778 17.9573C23.9767 18.4323 24.1346 19.1501 23.8799 19.7866C23.6199 20.4366 22.9942 20.8569 22.2857 20.8569H9.71443C9.00587 20.8569 8.38016 20.4369 8.12017 19.7869C7.86553 19.1505 8.02303 18.4323 8.52195 17.9573C9.5205 17.0066 10.2844 16.0113 10.2844 12.6392C10.2844 9.79673 12.5483 7.4789 15.4286 7.19855V6.57142C15.4286 6.25571 15.6843 6 16 6C16.3158 6 16.5715 6.25571 16.5715 6.57142V7.1982C19.4518 7.47855 21.7157 9.79673 21.7157 12.6392ZM14.8577 22C14.8577 22.6303 15.3698 23.1439 16.0005 23.1439C16.6312 23.1439 17.1434 22.6303 17.1434 22H18.2862C18.2862 23.2611 17.2605 24.2867 16.0005 24.2867C14.7405 24.2867 13.7148 23.2611 13.7148 22H14.8577Z" fill="#0EC76A"/>
</svg>
