<svg xmlns="http://www.w3.org/2000/svg" width="16" height="16" viewBox="0 0 16 16" fill="none">
  <path fill-rule="evenodd" clip-rule="evenodd" d="M8 0C3.58203 0 0 3.58332 0 8C0 12.4193 3.58203 16 8 16C12.418 16 16 12.4193 16 8C16 3.58332 12.418 0 8 0ZM8.00328 3.54688C8.75153 3.54688 9.35812 4.15346 9.35812 4.90171C9.35812 5.64997 8.75153 6.25655 8.00328 6.25655C7.25502 6.25655 6.64844 5.64997 6.64844 4.90171C6.64844 4.15346 7.25502 3.54688 8.00328 3.54688ZM9.42112 12.13C9.63489 12.13 9.80822 11.9567 9.80822 11.7429V10.9688C9.80822 10.755 9.63489 10.5817 9.42112 10.5817H9.03402V7.35585C9.03402 7.14207 8.8607 6.96875 8.64692 6.96875H6.58241C6.36864 6.96875 6.19531 7.14207 6.19531 7.35585V8.13004C6.19531 8.34381 6.36864 8.51714 6.58241 8.51714H6.96951V10.5817H6.58241C6.36864 10.5817 6.19531 10.755 6.19531 10.9688V11.7429C6.19531 11.9567 6.36864 12.13 6.58241 12.13H9.42112Z" fill="currentColor"/>
</svg>