<svg
  version="1.1"
  viewBox="0 0 100 100"
  xmlns="http://www.w3.org/2000/svg"

>
  <g>
    <path d="m28.457 42.262c-0.34766 6.2656 2.0273 12.355 6.5195 16.711 3.7227 3.6094 5.8555 8.582 5.8555 13.641v2.8398c0 2.7344 2.2227 4.957 4.957 4.957h8.4297c2.7344 0 4.957-2.2227 4.957-4.957v-2.8359c0-5.125 2.082-10.047 5.7148-13.508 4.3164-4.1133 6.6914-9.6602 6.6914-15.621 0-11.898-9.6797-21.578-21.578-21.578-0.8125 0-1.6367 0.046875-2.4531 0.13672-10.312 1.1406-18.52 9.832-19.094 20.215zm19.422-17.234c0.70703-0.078125 1.4219-0.11719 2.1211-0.11719 10.242 0 18.578 8.3359 18.578 18.578 0 5.1328-2.0469 9.9062-5.7617 13.449-4.2227 4.0234-6.6445 9.7383-6.6445 15.68v2.8359c0 1.0781-0.87891 1.957-1.957 1.957h-8.4297c-1.0781 0-1.957-0.87891-1.957-1.957v-2.8398c0-5.8633-2.4648-11.621-6.7656-15.793-3.8672-3.75-5.9102-8.9961-5.6133-14.391 0.49609-8.9414 7.5586-16.422 16.43-17.402z" />
    <path d="m50 30.91c3.0117 0 5.9258 1.0859 8.2109 3.0547 0.28125 0.24609 0.63281 0.36328 0.98047 0.36328 0.42188 0 0.83984-0.17578 1.1367-0.51953 0.54297-0.62891 0.47266-1.5742-0.15625-2.1133-2.8281-2.4414-6.4414-3.7852-10.172-3.7852-0.82812 0-1.5 0.67188-1.5 1.5s0.67188 1.5 1.5 1.5z" />
    <path d="m62.578 43.488c0 0.82812 0.67188 1.5 1.5 1.5s1.5-0.67188 1.5-1.5c0-1.9258-0.34766-3.8086-1.0391-5.5938-0.29687-0.77344-1.1641-1.1562-1.9375-0.85938-0.77344 0.29688-1.1562 1.168-0.85937 1.9375 0.55469 1.4414 0.83594 2.9609 0.83594 4.5156z" />
    <path d="m42.738 85.473h14.52c0.82813 0 1.5-0.67188 1.5-1.5s-0.67187-1.5-1.5-1.5h-14.52c-0.82812 0-1.5 0.67188-1.5 1.5 0 0.83203 0.67188 1.5 1.5 1.5z" />
    <path d="m42.738 90.238h14.52c0.82813 0 1.5-0.67188 1.5-1.5s-0.67187-1.5-1.5-1.5h-14.52c-0.82812 0-1.5 0.67188-1.5 1.5s0.67188 1.5 1.5 1.5z" />
    <path d="m55.129 93.5c0-0.82812-0.67188-1.5-1.5-1.5h-7.2617c-0.82813 0-1.5 0.67188-1.5 1.5s0.67187 1.5 1.5 1.5h7.2617c0.82812 0 1.5-0.67188 1.5-1.5z" />
    <path d="m13.055 41.945c0 0.82813 0.67187 1.5 1.5 1.5h8.6875c0.82812 0 1.5-0.67187 1.5-1.5 0-0.82812-0.67188-1.5-1.5-1.5h-8.6875c-0.82813 0-1.5 0.67188-1.5 1.5z" />
    <path d="m85.445 40.445h-8.6875c-0.82812 0-1.5 0.67188-1.5 1.5 0 0.82813 0.67188 1.5 1.5 1.5h8.6875c0.82813 0 1.5-0.67187 1.5-1.5 0-0.83203-0.67187-1.5-1.5-1.5z" />
    <path d="m48.5 6.5v8.6875c0 0.82812 0.67188 1.5 1.5 1.5s1.5-0.67188 1.5-1.5v-8.6875c0-0.82812-0.67188-1.5-1.5-1.5s-1.5 0.67188-1.5 1.5z" />
    <path d="m67.859 24.086c0.29297 0.29297 0.67578 0.4375 1.0625 0.4375 0.38281 0 0.76953-0.14453 1.0625-0.4375l6.1406-6.1406c0.58594-0.58594 0.58594-1.5352 0-2.1211-0.58594-0.58594-1.5352-0.58594-2.1211 0l-6.1406 6.1406c-0.58984 0.58203-0.58984 1.5352-0.003906 2.1211z" />
    <path d="m30.02 59.805l-6.1406 6.1406c-0.58594 0.58594-0.58594 1.5352 0 2.1211 0.29297 0.29297 0.67578 0.4375 1.0625 0.4375 0.38281 0 0.76953-0.14453 1.0625-0.4375l6.1406-6.1406c0.58594-0.58594 0.58594-1.5352 0-2.1211-0.58984-0.58594-1.5391-0.58594-2.125 0z" />
    <path d="m25.996 15.82c-0.58594-0.58594-1.5352-0.58594-2.1211 0-0.58594 0.58594-0.58594 1.5352 0 2.1211l6.1406 6.1406c0.29297 0.29297 0.67578 0.4375 1.0625 0.4375 0.38281 0 0.76953-0.14453 1.0625-0.4375 0.58594-0.58594 0.58594-1.5352 0-2.1211z" />
    <path d="m69.98 59.805c-0.58594-0.58594-1.5352-0.58594-2.1211 0-0.58594 0.58594-0.58594 1.5352 0 2.1211l6.1406 6.1406c0.29297 0.29297 0.67578 0.4375 1.0625 0.4375 0.38281 0 0.76953-0.14453 1.0625-0.4375 0.58594-0.58594 0.58594-1.5352 0-2.1211z" />
  </g>
</svg>