<svg width="17" height="16" viewBox="0 0 17 16" fill="none" xmlns="http://www.w3.org/2000/svg">
<path d="M0.5 8C0.5 3.86152 3.87218 0.5 8.03587 0.5C12.1996 0.5 15.5717 3.86152 15.5717 8C15.5717 12.141 12.1997 15.5 8.03587 15.5C3.87207 15.5 0.5 12.141 0.5 8Z" fill="#20B7E9" stroke="white"/>
<path d="M8.03351 8.94531C7.32465 8.94531 6.75 9.5174 6.75 10.2231C6.75 10.9288 7.32465 11.5009 8.03351 11.5009C8.74237 11.5009 9.31702 10.9288 9.31702 10.2231C9.31702 9.5174 8.74237 8.94531 8.03351 8.94531Z" fill="white"/>
<path d="M6.82082 4.3515L7.0278 8.12928C7.03748 8.30606 7.1843 8.44444 7.36213 8.44444H8.71667C8.89449 8.44444 9.04132 8.30606 9.051 8.12928L9.25798 4.3515C9.26844 4.16056 9.11573 4 8.92365 4H7.15512C6.96304 4 6.81036 4.16056 6.82082 4.3515Z" fill="white"/>
</svg>
