<svg xmlns="http://www.w3.org/2000/svg" width="48" height="48" viewBox="0 0 48 48">
    <g fill="none" fill-rule="nonzero">
        <circle cx="24" cy="24" r="24" fill="#131314"/>
        <path fill="#FFF" fill-opacity=".3" d="M31.809 28l3.658 1.979c.71.304.712 1.103 0 1.408l-9.556 5.168c-1.157.593-2.662.594-3.822 0l-9.556-5.168c-.71-.304-.712-1.103 0-1.408L16.19 28l5.898 3.189c1.16.594 2.665.593 3.822 0L31.81 28z"/>
        <path fill="#FFF" fill-opacity=".6" d="M31.809 21l3.658 1.979c.71.304.712 1.103 0 1.408l-9.556 5.168c-1.157.593-2.662.594-3.822 0l-9.556-5.168c-.71-.304-.712-1.103 0-1.408L16.19 21l5.898 3.189c1.16.594 2.665.593 3.822 0L31.81 21z"/>
        <path fill="#FFF" d="M22.089 11.423c1.157-.563 2.662-.565 3.822 0l9.556 4.908c.71.29.712 1.048 0 1.338l-9.556 4.908c-1.157.563-2.662.565-3.822 0l-9.556-4.908c-.71-.29-.712-1.048 0-1.338l9.556-4.908z"/>
    </g>
</svg>
