<?xml version="1.0" encoding="UTF-8"?>
<svg width="100pt" height="100pt" version="1.1" viewBox="0 0 100 100" xmlns="http://www.w3.org/2000/svg">
 <g>
  <path d="m85.414 28.586l-22-22c-0.375-0.375-0.88281-0.58594-1.4141-0.58594h-46c-1.1055 0-2 0.89453-2 2v84c0 1.1055 0.89453 2 2 2h68c1.1055 0 2-0.89453 2-2v-62c0-0.53125-0.21094-1.0391-0.58594-1.4141zm-21.414-15.758l15.172 15.172h-15.172zm-46 77.172v-80h42v20c0 1.1055 0.89453 2 2 2h20v58z"/>
  <path d="m34.648 80.738c-1.1289 0-2.1875-0.44531-3.0625-1.3242-2.2773-2.2773-2.5-5.082-0.59375-7.5078 1.9414-2.4688 6.4062-4.6719 11.684-6.2773 0.59766-1.3008 1.1758-2.6719 1.7227-4.0898 0.625-1.6211 1.1836-3.2305 1.6641-4.7969-3.8281-6.3789-6.2305-12.977-5.2969-16.77 0.67578-2.7383 2.8477-4.1836 5.957-3.9688 0.011719 0 0.023438 0 0.039063 0.003906 1.5664 0.13672 4.332 1.0195 5.2344 5.3945 0.73828 3.5898 0.015625 9.0234-1.5703 14.719 1.5781 2.4688 3.3672 4.8867 5.2148 7.0039 5.5938-0.48828 10.637-0.09375 13.312 1.5352 2.293 1.3945 2.9883 3.6992 1.8672 6.1719-0.042968 0.097657-0.097656 0.19141-0.15625 0.28125-1.9648 2.9453-5.2109 3.7031-8.9023 2.0742-2.4492-1.0781-5.1094-3.1797-7.6836-5.8516-2.8125 0.33594-5.7578 0.87891-8.5117 1.5859-2.625 5.3438-5.668 9.6484-8.4414 11.145-0.83594 0.44922-1.6758 0.67188-2.4766 0.67188zm5.4258-10.074c-2.707 1.0742-4.8555 2.332-5.9375 3.7109-0.57422 0.73047-0.67969 1.25 0.27734 2.207 0.15625 0.15234 0.25781 0.25391 0.8125-0.042969 1.3633-0.73047 3.0938-2.875 4.8477-5.875zm19.387-3.7188c1.3398 1.1367 2.6641 2.0312 3.9141 2.5781 2.5312 1.1172 3.4336 0.13281 3.8672-0.49219 0.22266-0.53516 0.12109-0.66016-0.36719-0.95703-1.3867-0.84375-4.1016-1.1875-7.4141-1.1289zm-10.59-5.9219c-0.39453 1.1211-0.82031 2.2344-1.2656 3.3281 1.0938-0.23828 2.1992-0.44922 3.3047-0.63281-0.69922-0.86719-1.3789-1.7695-2.0391-2.6953zm-2.7734-21.043c-1.2148 0-1.3438 0.52344-1.4492 0.94922-0.50781 2.0664 0.71484 5.9219 2.8828 10.164 0.75781-3.6758 0.97266-6.8164 0.54688-8.8867-0.42969-2.0742-1.2695-2.1836-1.6445-2.2148-0.12109-0.007813-0.23438-0.011719-0.33594-0.011719z"/>
 </g>
</svg>
