<svg width="32" height="32" viewBox="0 0 32 32" fill="none" xmlns="http://www.w3.org/2000/svg">
<circle cx="16" cy="16" r="16" fill="#EEF1FC"/>
<path d="M6.27497 21.4565C5.94089 20.4453 5.75977 19.0437 5.75977 17.9202C5.75977 12.2648 10.3444 7.68018 15.9998 7.68018C21.6551 7.68018 26.2398 12.2648 26.2398 17.9202C26.2398 19.0399 26.0599 20.4373 25.7278 21.4459C25.6318 21.7381 25.7278 21.4459 25.7278 21.4459C25.5476 21.9202 24.9828 22.2155 24.4606 22.117C24.4606 22.117 21.7918 21.4402 15.9998 21.4402C10.2078 21.4402 7.53897 22.117 7.53897 22.117C7.01929 22.2207 6.44265 21.9023 6.27497 21.4565C6.31049 21.564 6.27497 21.4565 6.27497 21.4565Z" fill="#99ADEB"/>
<path fill-rule="evenodd" clip-rule="evenodd" d="M15.9994 11.8398C15.2925 11.8398 14.7194 11.2667 14.7194 10.5598C14.7194 9.85286 15.2925 9.27979 15.9994 9.27979C16.7063 9.27979 17.2794 9.85286 17.2794 10.5598C17.2794 11.2667 16.7063 11.8398 15.9994 11.8398ZM18.1168 20.0004C18.7734 20.9662 18.6933 22.2539 17.9219 23.1307C17.1505 24.0075 15.8835 24.2512 14.842 23.723C13.8004 23.1948 13.2483 22.0287 13.4999 20.8883C13.7515 19.7479 14.743 18.9223 15.9101 18.8814L20.0323 11.5419C20.2747 11.11 20.8116 10.9267 21.2628 11.0998C21.6718 11.3637 21.8369 11.9043 21.6298 12.3556L18.1168 20.0004ZM21.2628 11.0998C21.2351 11.0819 21.2063 11.0653 21.1763 11.05L21.3531 11.1398C21.3235 11.1248 21.2934 11.1115 21.2628 11.0998ZM9.91937 12.7998C9.91937 13.5067 10.4925 14.0798 11.1994 14.0798C11.9063 14.0798 12.4794 13.5067 12.4794 12.7998C12.4794 12.0929 11.9063 11.5198 11.1994 11.5198C10.4925 11.5198 9.91937 12.0929 9.91937 12.7998ZM8.63937 18.8798C7.93245 18.8798 7.35938 18.3067 7.35938 17.5998C7.35938 16.8929 7.93245 16.3198 8.63937 16.3198C9.3463 16.3198 9.91937 16.8929 9.91937 17.5998C9.91937 18.3067 9.3463 18.8798 8.63937 18.8798ZM22.0794 17.5998C22.0794 18.3067 22.6525 18.8798 23.3594 18.8798C24.0663 18.8798 24.6394 18.3067 24.6394 17.5998C24.6394 16.8929 24.0663 16.3198 23.3594 16.3198C22.6525 16.3198 22.0794 16.8929 22.0794 17.5998Z" fill="#274FC5"/>
</svg>
