<?xml version="1.0" encoding="UTF-8"?>
<svg width="100pt" height="100pt" version="1.1" viewBox="0 0 100 100" xmlns="http://www.w3.org/2000/svg">
 <g>
  <path d="m48.707 7.0898c-24.238 0-43.957 19.719-43.957 43.953 0 24.238 19.719 43.957 43.957 43.957s43.957-19.719 43.957-43.957c-0.003906-24.234-19.723-43.953-43.957-43.953zm38.184 43.953c0 21.055-17.129 38.188-38.188 38.188-21.055 0-38.188-17.129-38.188-38.188 0-21.055 17.129-38.188 38.188-38.188 21.059 0.003906 38.188 17.133 38.188 38.188z"/>
  <path d="m65.492 54.211-23.891 15.203c-1.4688 0.93359-2.8516 1.2578-3.6055 0.84375-0.75391-0.41406-1.2266-1.7539-1.2266-3.4961v-31.383c0-1.7734 0.46875-3.0938 1.2578-3.5312 0.78906-0.4375 2.1562-0.14062 3.6641 0.79688l23.766 14.766c1.5859 0.98438 2.4961 2.2188 2.5039 3.3906 0.007812 1.1641-0.89453 2.4102-2.4688 3.4102zm3.0078-11.707-23.766-14.766c-3.3633-2.0898-6.8281-2.4297-9.5117-0.9375-2.6836 1.4922-4.2227 4.6172-4.2227 8.5742v31.387c0 3.9648 1.5391 7.082 4.2188 8.5547s6.1367 1.0938 9.4805-1.0352l23.891-15.203c3.2812-2.0898 5.1562-5.1211 5.1406-8.3125-0.015625-3.1953-1.9219-6.207-5.2305-8.2617z"/>
 </g>
</svg>
