<svg width="32" height="32" viewBox="0 0 32 32" fill="none" xmlns="http://www.w3.org/2000/svg">
<path d="M23.1086 21.4818V16.5416C23.1086 16.0862 22.6947 15.7428 22.247 15.8269L16.1342 16.9751C16.0455 16.9917 15.9545 16.9917 15.8658 16.9751L9.74779 15.8267C9.30018 15.7427 8.88635 16.0861 8.88635 16.5415V21.4818C8.88635 21.8835 9.21196 22.2091 9.61362 22.2091H15.8566H22.3813C22.783 22.2091 23.1086 21.8835 23.1086 21.4818Z" fill="#674CED" fill-opacity="0.2" stroke="#674CED" stroke-width="1.5"/>
<path d="M8 11.5058C8 11.1042 8.32561 10.7786 8.72727 10.7786H23.2727C23.6744 10.7786 24 11.1042 24 11.5058V14.8954C24 15.2453 23.7508 15.5457 23.4069 15.6102L16.1342 16.9756C16.0455 16.9922 15.9545 16.9922 15.8658 16.9756L8.59308 15.6102C8.24918 15.5457 8 15.2453 8 14.8954V11.5058Z" fill="#674CED" fill-opacity="0.2" stroke="#674CED" stroke-width="1.5"/>
<rect x="15.1136" y="15.2217" width="1.77778" height="3.55556" rx="0.727273" fill="#674CED"/>
<path d="M19.5568 10.778V10.4548C19.5568 9.65147 18.9055 9.00024 18.1022 9.00024H13.9002C13.0969 9.00024 12.4457 9.65147 12.4457 10.4548V10.778" stroke="#674CED" stroke-opacity="0.6"/>
<circle cx="16" cy="16" r="16" fill="#674CED" fill-opacity="0.11"/>
</svg>
