<?xml version="1.0" encoding="UTF-8"?>
<svg width="100pt" height="100pt" version="1.1" viewBox="0 0 100 100" xmlns="http://www.w3.org/2000/svg">
 <g>
  <path d="m88.281 21.25c-5.7812-5.625-11.406-11.25-17.188-16.875-2.1875-2.1875-4.8438-3.2812-7.9688-3.2812h-40.781c-7.8125 0-13.594 5.9375-13.594 13.594v21.719 48.594c0 3.9062 1.4062 7.3438 3.9062 10 2.5 2.5 6.0938 3.9062 9.8438 3.9062h54.688c7.9688 0 13.906-5.7812 13.906-13.906v-12.344-44.531c0.15625-2.6562-0.9375-5-2.8125-6.875zm-5.625 5.7812c0.3125 0.3125 0.46875 0.46875 0.46875 0.78125h-17.344c-1.875 0-2.1875-0.3125-2.1875-2.1875v-16.406c0.78125 0 1.25 0.3125 1.875 0.9375 5.625 5.625 11.406 11.25 17.188 16.875zm0.46875 57.969c0 3.5938-2.1875 5.7812-5.7812 5.7812h-54.688v2.1875-2.1875c-1.7188 0-3.125-0.46875-4.2188-1.5625-0.9375-0.9375-1.5625-2.5-1.5625-4.2188v-48.594-21.719c0-3.4375 2.1875-5.625 5.4688-5.625h32.969v16.562c0 6.4062 4.0625 10.312 10.469 10.312h17.344v36.562z"/>
  <path d="m35.469 55.312h-6.5625c-1.5625 0-2.5 0.9375-2.5 2.5v4.2188 15.469c0 1.7188 0.9375 2.6562 2.6562 2.6562h6.25c1.5625 0 2.5-0.9375 2.5-2.5v-19.844c0-1.5625-0.9375-2.5-2.3438-2.5z"/>
  <path d="m71.094 46.094h-6.5625c-1.5625 0-2.5 0.9375-2.5 2.5v8.5938 20.312c0 1.7188 0.9375 2.6562 2.6562 2.6562h6.25c1.5625 0 2.5-0.9375 2.5-2.5v-29.062c0.15625-1.5625-0.78125-2.5-2.3438-2.5z"/>
  <path d="m53.125 63.906h-6.5625c-1.5625 0-2.5 0.9375-2.5 2.5v11.094c0 1.7188 0.9375 2.5 2.5 2.6562h6.25c1.5625 0 2.5-0.9375 2.5-2.5v-11.094c0.3125-1.7188-0.625-2.6562-2.1875-2.6562z"/>
 </g>
</svg>
