<?xml version="1.0" encoding="UTF-8"?>
<svg width="168px" height="67px" viewBox="0 0 168 67" version="1.1" xmlns="http://www.w3.org/2000/svg" xmlns:xlink="http://www.w3.org/1999/xlink">
    <title>Aggressive</title>
    <g id="List" stroke="none" stroke-width="1" fill="none" fill-rule="evenodd" fill-opacity="0.3">
        <g id="Create-campaign---Step-3" transform="translate(-1193.000000, -1053.000000)" fill="#05A8FA">
            <g id="Group-7" transform="translate(649.000000, 944.000000)">
                <g id="Group" transform="translate(512.000000, 77.000000)">
                    <g id="Aggressive" transform="translate(32.000000, 32.000000)">
                        <path d="M84,-50.5 C84,5.5 95.1666667,61.5 117.5,117.5 C88.6265064,117.5 79.9106445,117.5 50.5,117.5 C73.2183908,61.5 84.3850575,5.5 84,-50.5 Z" id="Triangle" transform="translate(84.000000, 33.500000) rotate(-90.000000) translate(-84.000000, -33.500000) "></path>
                        <path d="M84,-50.5 C84,5.5 88.6206897,61.5 97.862069,117.5 C83.4253222,117.5 84.8432533,117.5 70.137931,117.5 C79.7643678,61.5 84.3850575,5.5 84,-50.5 Z" id="Triangle" transform="translate(84.000000, 33.500000) rotate(-90.000000) translate(-84.000000, -33.500000) "></path>
                    </g>
                </g>
            </g>
        </g>
    </g>
</svg>