<svg width="40" height="40" viewBox="0 0 40 40" fill="none" xmlns="http://www.w3.org/2000/svg">
<circle opacity="0.1" cx="20" cy="20" r="20" fill="#05A8FA"/>
<path d="M30.9696 22.094L29.3916 21.183C29.4908 20.3974 29.4908 19.6025 29.3916 18.8169L30.9696 17.906C31.4329 17.6385 31.6564 17.0881 31.504 16.5753C30.9614 14.7487 29.9956 13.1046 28.7201 11.7562C28.3507 11.3657 27.7612 11.2802 27.2957 11.549L25.7201 12.4585C25.0899 11.9789 24.4016 11.5809 23.6715 11.274V9.45399C23.6715 8.91544 23.3012 8.44734 22.7771 8.32333C20.9556 7.89225 19.0456 7.8922 17.2237 8.32333C16.6996 8.44734 16.3293 8.91539 16.3293 9.45399V11.274C15.5992 11.5809 14.9109 11.9789 14.2806 12.4585L12.7051 11.549C12.2395 11.2802 11.65 11.3657 11.2807 11.7562C10.0052 13.1046 9.03936 14.7487 8.49674 16.5753C8.34437 17.0881 8.56787 17.6384 9.03123 17.906L10.6091 18.8169C10.5099 19.6025 10.5099 20.3974 10.6091 21.183L9.03123 22.094C8.56787 22.3615 8.34437 22.9118 8.49674 23.4247C9.03936 25.2512 10.0052 26.8954 11.2807 28.2438C11.6501 28.6343 12.2396 28.7197 12.7051 28.4511L14.2806 27.5415C14.9109 28.0211 15.5992 28.4191 16.3293 28.7259V30.546C16.3293 31.0845 16.6996 31.5526 17.2237 31.6766C19.0452 32.1077 20.9552 32.1078 22.7771 31.6766C23.3012 31.5526 23.6715 31.0846 23.6715 30.546V28.7259C24.4016 28.4191 25.0899 28.0211 25.7201 27.5415L27.2957 28.4511C27.7612 28.7198 28.3507 28.6343 28.7201 28.2438C29.9956 26.8954 30.9614 25.2512 31.504 23.4247C31.6564 22.9118 31.4329 22.3615 30.9696 22.094Z" fill="#05A8FA" fill-opacity="0.8"/>
<circle cx="20" cy="20.001" r="7" fill="white" fill-opacity="0.9"/>
<path d="M22.2493 17.3C22.2493 17.3 21.5841 16.4 19.9992 16.4C16.8492 16.4 16.8492 20 19.9992 20C23.1492 20 23.1493 23.6 19.9993 23.6C18.6493 23.6 17.7493 22.7 17.7493 22.7M19.9992 15.5V24.5" stroke="#05A8FA" stroke-width="1.35" stroke-linecap="round" stroke-linejoin="round"/>
</svg>
