<?xml version="1.0" encoding="UTF-8"?>
<svg width="14px" height="16px" viewBox="0 0 14 16" version="1.1" xmlns="http://www.w3.org/2000/svg" xmlns:xlink="http://www.w3.org/1999/xlink">
    <title>share-alt-3</title>
    <g id="Symbols" stroke="none" stroke-width="1" fill="none" fill-rule="evenodd">
        <g id="Icons/Basic/Share-white" transform="translate(-9.000000, -8.000000)" fill="#FFFFFF" fill-rule="nonzero">
            <g id="share-alt-3" transform="translate(9.000000, 8.000000)">
                <path d="M11,10 C10.2,10 9.471875,10.3125 8.934375,10.825 L5.8625,8.903125 C6.046875,8.315625 6.046875,7.68125 5.8625,7.096875 L8.934375,5.175 C9.471875,5.6875 10.2,6 11,6 C12.65625,6 14,4.65625 14,3 C14,1.34375 12.65625,0 11,0 C9.34375,0 8,1.34375 8,3 C8,3.30625 8.046875,3.6125 8.1375,3.903125 L5.065625,5.825 C4.528125,5.3125 3.8,5 3,5 C1.34375,5 0,6.34375 0,8 C0,9.65625 1.34375,11 3,11 C3.8,11 4.528125,10.6875 5.065625,10.175 L8.1375,12.096875 C8.046875,12.390625 8,12.69375 8,13 C8,14.65625 9.34375,16 11,16 C12.65625,16 14,14.65625 14,13 C14,11.34375 12.65625,10 11,10 Z M11,1.5 C11.828125,1.5 12.5,2.171875 12.5,3 C12.5,3.828125 11.828125,4.5 11,4.5 C10.171875,4.5 9.5,3.828125 9.5,3 C9.5,2.171875 10.171875,1.5 11,1.5 Z M3,9.5 C2.171875,9.5 1.5,8.828125 1.5,8 C1.5,7.171875 2.171875,6.5 3,6.5 C3.828125,6.5 4.5,7.171875 4.5,8 C4.5,8.828125 3.828125,9.5 3,9.5 Z M11,14.5 C10.171875,14.5 9.5,13.828125 9.5,13 C9.5,12.171875 10.171875,11.5 11,11.5 C11.828125,11.5 12.5,12.171875 12.5,13 C12.5,13.828125 11.828125,14.5 11,14.5 Z" id="Shape"></path>
            </g>
        </g>
    </g>
</svg>