<svg width="16" height="14" viewBox="0 0 16 14" fill="none" xmlns="http://www.w3.org/2000/svg">
<path d="M4.89744 11.6325L2.77263 13.8826C2.62475 14.0391 2.37535 14.0393 2.22738 13.8826L0.102598 11.6325C-0.12134 11.3954 0.0446292 11 0.375223 11H1.75V0.375C1.75 0.167906 1.91791 0 2.125 0H2.875C3.0821 0 3.25 0.167906 3.25 0.375V11H4.62482C4.95566 11 5.12119 11.3956 4.89744 11.6325ZM7.375 3.25H15.625C15.8321 3.25 16 3.08209 16 2.875V2.125C16 1.91791 15.8321 1.75 15.625 1.75H7.375C7.16791 1.75 7 1.91791 7 2.125V2.875C7 3.08209 7.16791 3.25 7.375 3.25ZM7 5.875V5.125C7 4.91791 7.16791 4.75 7.375 4.75H13.625C13.8321 4.75 14 4.91791 14 5.125V5.875C14 6.08209 13.8321 6.25 13.625 6.25H7.375C7.16791 6.25 7 6.08209 7 5.875ZM7 11.875V11.125C7 10.9179 7.16791 10.75 7.375 10.75H9.625C9.8321 10.75 10 10.9179 10 11.125V11.875C10 12.0821 9.8321 12.25 9.625 12.25H7.375C7.16791 12.25 7 12.0821 7 11.875ZM7 8.875V8.125C7 7.91791 7.16791 7.75 7.375 7.75H11.625C11.8321 7.75 12 7.91791 12 8.125V8.875C12 9.08209 11.8321 9.25 11.625 9.25H7.375C7.16791 9.25 7 9.08209 7 8.875Z" fill="#A6A7B5"/>
</svg>
