<?xml version="1.0" encoding="UTF-8"?>
<svg width="24px" height="24px" viewBox="0 0 24 24" version="1.1" xmlns="http://www.w3.org/2000/svg" xmlns:xlink="http://www.w3.org/1999/xlink">
    <title>19B2888D-D434-444E-980A-5FB9F222698B</title>
    <g id="🖥-Screens" stroke="none" stroke-width="1" fill="none" fill-rule="evenodd">
        <g id="Campaign-list" transform="translate(-314.000000, -368.000000)" fill-rule="nonzero">
            <g id="Table" transform="translate(266.000000, 300.000000)">
                <g id="Row" transform="translate(0.000000, 61.000000)">
                    <g id="Stack" transform="translate(48.000000, 7.000000)">
                        <circle id="Oval" fill="#131314" cx="12" cy="12" r="12"></circle>
                        <path d="M15.92232,14.28 L17.76,15.25344 C18.11616,15.4032 18.1176,15.79608 17.76,15.94656 L12.96,18.48888 C12.37872,18.78048 11.62272,18.7812 11.04,18.48888 L6.24,15.94656 C5.88384,15.7968 5.8824,15.40392 6.24,15.25344 L8.07768,14.28 L11.04,15.84888 C11.62272,16.1412 12.37872,16.14048 12.96,15.84888 L15.92232,14.28 Z" id="Path" fill-opacity="0.3" fill="#FFFFFF"></path>
                        <path d="M15.92232,10.68 L17.76,11.65344 C18.11616,11.8032 18.1176,12.19608 17.76,12.34656 L12.96,14.88888 C12.37872,15.18048 11.62272,15.1812 11.04,14.88888 L6.24,12.34656 C5.88384,12.1968 5.8824,11.80392 6.24,11.65344 L8.07768,10.68 L11.04,12.24888 C11.62272,12.5412 12.37872,12.54048 12.96,12.24888 L15.92232,10.68 Z" id="Path" fill-opacity="0.6" fill="#FFFFFF"></path>
                        <path d="M11.04,5.51112 C11.62128,5.21952 12.37728,5.2188 12.96,5.51112 L17.76,8.05344 C18.11616,8.2032 18.1176,8.59608 17.76,8.74656 L12.96,11.28888 C12.37872,11.58048 11.62272,11.5812 11.04,11.28888 L6.24,8.74656 C5.88384,8.5968 5.8824,8.20392 6.24,8.05344 L11.04,5.51112 Z" id="Path" fill="#FFFFFF"></path>
                    </g>
                </g>
            </g>
        </g>
    </g>
</svg>