<?xml version="1.0" encoding="UTF-8" standalone="no"?>
<!-- Created with Inkscape (http://www.inkscape.org/) -->

<svg
   xmlns:dc="http://purl.org/dc/elements/1.1/"
   xmlns:cc="http://creativecommons.org/ns#"
   xmlns:rdf="http://www.w3.org/1999/02/22-rdf-syntax-ns#"
   xmlns:svg="http://www.w3.org/2000/svg"
   xmlns="http://www.w3.org/2000/svg"
   xmlns:xlink="http://www.w3.org/1999/xlink"
   xmlns:sodipodi="http://sodipodi.sourceforge.net/DTD/sodipodi-0.dtd"
   xmlns:inkscape="http://www.inkscape.org/namespaces/inkscape"
   id="svg2423"
   sodipodi:version="0.32"
   inkscape:version="0.92.3 (2405546, 2018-03-11)"
   width="672.47003"
   height="194.2816"
   xml:space="preserve"
   sodipodi:docname="Swisscom_2008 (Horizontal).svg"
   version="1.0"
   inkscape:output_extension="org.inkscape.output.svg.inkscape"><metadata
     id="metadata2428"><rdf:RDF><cc:Work
         rdf:about=""><dc:format>image/svg+xml</dc:format><dc:type
           rdf:resource="http://purl.org/dc/dcmitype/StillImage" /><dc:title></dc:title></cc:Work></rdf:RDF></metadata><defs
     id="defs2426"><inkscape:perspective
       sodipodi:type="inkscape:persp3d"
       inkscape:vp_x="0 : 47.050457 : 1"
       inkscape:vp_y="0 : 1000 : 0"
       inkscape:vp_z="127.56625 : 47.050457 : 1"
       inkscape:persp3d-origin="63.783127 : 31.366971 : 1"
       id="perspective64" /><linearGradient
       id="linearGradient13181"><stop
         id="stop13183"
         offset="0"
         style="stop-color:#52c0ee;stop-opacity:1;" /><stop
         id="stop13185"
         offset="1"
         style="stop-color:#002f7a;stop-opacity:0.98039216;" /></linearGradient><linearGradient
       id="linearGradient13159"><stop
         id="stop13161"
         offset="0"
         style="stop-color:#131f65;stop-opacity:1;" /><stop
         id="stop13163"
         offset="1"
         style="stop-color:#52c0ee;stop-opacity:0.98039216;" /></linearGradient><linearGradient
       id="linearGradient13133"><stop
         style="stop-color:#004c94;stop-opacity:1;"
         offset="0"
         id="stop13135" /><stop
         style="stop-color:#52c0ee;stop-opacity:0.98039216;"
         offset="1"
         id="stop13137" /></linearGradient><linearGradient
       id="linearGradient13097"><stop
         style="stop-color:#ee312f;stop-opacity:1"
         offset="0"
         id="stop13099" /><stop
         style="stop-color:#751024;stop-opacity:1;"
         offset="1"
         id="stop13101" /></linearGradient><clipPath
       clipPathUnits="userSpaceOnUse"
       id="clipPath2440"><path
         d="m 132.334,74.719 c 0.463,-0.428 0.957,-0.828 1.472,-1.202 0.349,-0.254 0.71,-0.494 1.078,-0.724 0.492,-0.307 0.998,-0.593 1.51,-0.858 0.694,-0.358 1.787,-0.857 2.488,-1.138 -0.137,0.215 -0.236,0.363 -0.398,0.608 -0.349,0.398 -0.674,0.782 -0.988,1.314 -0.248,0.42 -0.488,0.934 -0.725,1.625 -0.149,0.43 -0.31,0.914 -0.459,1.446 -0.104,0.368 -0.202,0.761 -0.288,1.18 -0.014,0.077 -0.082,0.379 -0.1,0.459 -0.089,0.423 -0.171,0.824 -0.261,1.212 -0.089,0.38 -0.188,0.748 -0.311,1.114 -0.198,0.583 -0.416,1.144 -0.651,1.679 -0.287,0.65 -0.6,1.261 -0.934,1.827 -0.22,0.373 -0.803,1.137 -1.058,1.468 -0.196,0.255 -0.368,0.451 -0.555,0.657 -0.139,0.154 -0.285,0.311 -0.452,0.502 -0.201,0.228 -0.437,0.441 -0.633,0.661 -0.014,0.016 -0.008,0.008 -0.037,-0.025 -0.432,-0.548 -0.823,-1.108 -1.148,-1.687 -0.268,-0.476 -0.489,-0.964 -0.654,-1.466 -0.094,-0.288 -0.171,-0.579 -0.226,-0.875 -0.057,-0.303 -0.092,-0.61 -0.103,-0.923 -0.014,-0.389 0.009,-0.786 0.071,-1.193 0.065,-0.415 0.171,-0.842 0.326,-1.278 0.177,-0.506 0.419,-1.024 0.731,-1.56 0.039,-0.07 0.081,-0.138 0.123,-0.208 0.59,-0.962 1.335,-1.835 2.182,-2.615"
         id="path2442"
         inkscape:connector-curvature="0" /></clipPath><clipPath
       clipPathUnits="userSpaceOnUse"
       id="clipPath2448"><path
         d="m 8152.6099,8172.4897 h 27.7597 v 43.8003 h -27.7597 z"
         id="path2450"
         inkscape:connector-curvature="0" /></clipPath><clipPath
       clipPathUnits="userSpaceOnUse"
       id="clipPath2662"><path
         d="m 138.882,65.453 c 0.948,0.078 1.941,0.21 2.959,0.397 1.258,0.233 2.554,0.549 3.853,0.955 1.097,0.342 2.193,0.747 3.264,1.218 0.956,0.418 1.892,0.887 2.79,1.409 1.169,0.681 2.277,1.448 3.285,2.308 1.159,0.991 2.188,2.1 3.025,3.332 0.872,1.288 1.537,2.71 1.931,4.273 0.216,0.847 0.346,1.734 0.389,2.665 0.047,1.044 -0.063,2.052 -0.309,3.029 -0.333,1.313 -0.908,2.574 -1.677,3.799 -0.967,1.544 -2.242,3.034 -3.716,4.498 -1.492,1.48 -3.185,2.937 -4.972,4.402 -1.1,0.901 -2.233,1.805 -3.377,2.721 -0.879,0.704 -1.764,1.415 -2.644,2.135 -0.987,0.809 -1.967,1.631 -2.924,2.47 -0.846,0.761 -1.655,1.486 -2.437,2.241 -0.259,0.25 -0.514,0.503 -0.769,0.76 -0.817,0.825 -1.62,1.697 -2.45,2.67 0.475,-0.689 1.209,-1.727 1.914,-2.794 0.495,-0.748 0.975,-1.51 1.324,-2.191 0.158,-0.309 0.292,-0.614 0.389,-0.885 0.088,-0.244 0.147,-0.459 0.149,-0.629 0,-0.649 0.002,-0.895 0.002,-0.968 0,-0.618 0.002,-2.849 0.002,-7.785 0,-1.549 0,-4.819 0,-6.456 10e-4,-2.275 10e-4,-3.429 10e-4,-8.339 0,-2.612 -0.002,-7.216 -0.002,-10.212 0,-2.723 0,-5.023 0,-5.023"
         id="path2664"
         inkscape:connector-curvature="0" /></clipPath><clipPath
       clipPathUnits="userSpaceOnUse"
       id="clipPath2670"><path
         d="m 8169.8799,8105.3496 h 70.2695 v 125.79 h -70.2695 z"
         id="path2672"
         inkscape:connector-curvature="0" /></clipPath><clipPath
       clipPathUnits="userSpaceOnUse"
       id="clipPath3166"><path
         d="m 138.882,70.797 c 0,0 1.752,2.07 2.25,2.658 0.325,0.383 1.061,1.319 1.759,2.219 0.677,0.872 1.316,1.71 1.506,1.972 0.089,0.126 1.189,1.694 1.286,1.831 0.538,0.763 0.153,0.229 0.439,0.617 0.119,0.177 0.189,0.232 0.96,1.412 0.087,0.132 0.232,0.359 0.354,0.561 0.072,0.115 0.716,1.159 0.771,1.247 0.131,0.213 0.247,0.408 0.352,0.591 0.312,0.544 0.529,0.979 0.776,1.433 0.558,1.025 0.829,1.515 1.33,2.599 0.351,0.754 0.738,1.642 0.986,2.278 0.174,0.446 0.441,1.154 0.578,1.546 0.096,0.274 0.335,0.988 0.469,1.423 0.254,0.835 0.381,1.386 0.436,1.614 0.019,0.085 -0.121,0.605 -0.12,0.617 -0.57,0.495 -1.365,1.183 -1.897,1.62 -0.21,0.175 -1.792,1.498 -2.065,1.721 -1.022,0.83 -2.518,2.035 -3.6,2.908 -1.113,0.898 -1.813,1.465 -2.859,2.328 -3.792,3.119 -5.646,5.216 -7.659,7.037 0.993,-2.269 3.55,-5.508 3.55,-7.761 0,-0.162 0.002,-2.38 0.002,-2.986 0,-0.607 0,-3.099 0,-3.71 0,-0.613 0.001,-3.665 0.001,-4.214 0,-0.55 -0.003,-3.772 -0.003,-4.641 0,-0.536 0,-2.691 0,-3.538 0,-0.289 0,-1.196 0,-1.36 0,-0.585 0,-9.226 0,-11.414 0,0 0.14,-0.205 0.398,-0.608"
         id="path3168"
         inkscape:connector-curvature="0" /></clipPath><clipPath
       clipPathUnits="userSpaceOnUse"
       id="clipPath3174"><path
         d="m 8169.4097,8104.54 h 50.6001 v 111.75 h -50.6001 z"
         id="path3176"
         inkscape:connector-curvature="0" /></clipPath><clipPath
       clipPathUnits="userSpaceOnUse"
       id="clipPath3592"><path
         d="m 141.378,104.525 c 0.183,-0.154 0.326,-0.275 0.76,-0.639 0.174,-0.148 0.626,-0.526 0.794,-0.665 0.327,-0.274 1.5,-1.228 1.637,-1.342 0.04,-0.033 0.121,-0.099 0.232,-0.189 0.667,-0.54 2.428,-1.955 2.97,-2.39 0.007,-0.005 0.029,-0.023 0.065,-0.052 0.401,-0.323 2.449,-1.975 3.461,-2.838 0.938,-0.801 1.764,-1.545 1.835,-1.612 0.211,0.942 0.355,1.862 0.445,2.723 0.125,1.208 0.135,2.336 0.05,3.387 -0.15,1.8 -0.585,3.373 -1.222,4.735 -0.635,1.363 -1.473,2.515 -2.423,3.469 -0.1,0.101 -0.202,0.199 -0.302,0.294 -0.567,0.524 -1.174,1 -1.822,1.417 -0.638,0.409 -1.311,0.764 -2.01,1.056 -1.242,0.518 -2.488,0.81 -3.615,0.897 -1.36,0.106 -2.635,-0.124 -3.44,-0.575 -0.158,-0.079 -0.298,-0.143 -0.298,-0.143 0,0 0,-1.471 0,-1.975 0,-0.38 0.001,-2.562 0.001,-2.941 0.049,-0.046 0.385,-0.352 0.385,-0.369 0.613,-0.565 1.349,-1.242 1.72,-1.57 0.265,-0.235 0.502,-0.451 0.777,-0.678"
         id="path3594"
         inkscape:connector-curvature="0" /></clipPath><clipPath
       clipPathUnits="userSpaceOnUse"
       id="clipPath3600"><path
         d="m 8179.3003,8099.54 h 42.269 v 50.0899 h -42.269 z"
         id="path3602"
         inkscape:connector-curvature="0" /></clipPath><clipPath
       clipPathUnits="userSpaceOnUse"
       id="clipPath3736"><path
         d="m 136.119,75.119 c 0.069,-0.232 0.141,-0.462 0.218,-0.692 0.114,-0.34 0.237,-0.682 0.377,-1.016 0.215,-0.515 0.47,-1.015 0.794,-1.463 0.247,-0.339 0.532,-0.653 0.882,-0.889 0.148,-0.099 0.313,-0.188 0.491,-0.262 0,1.442 0,7.386 0,9.361 0,0.001 -0.092,0.02 -0.178,0.044 -0.091,0.025 -0.207,0.058 -0.207,0.061 0,3.984 0,7.603 -0.001,11.587 -0.001,2.495 0,7.58 0,10.074 0,0.981 0,1.176 0,1.303 0,0.547 0.385,1.01 0.385,1.006 0,-0.025 0,0.003 0,0.004 0,0.162 -0.086,0.439 -0.129,0.566 -0.137,0.397 -0.321,0.777 -0.518,1.146 -0.113,0.212 0.009,0.005 -0.113,0.212 -0.321,0.54 -0.907,1.481 -1.256,2.004 -0.51,0.767 -0.4,0.608 -0.927,1.364 -0.188,0.27 -0.561,0.807 -0.743,1.096 -0.261,0.413 -0.638,1.747 -0.822,2.206 -0.544,-0.411 -1.414,-1.059 -1.966,-1.462 -1.311,-0.96 -2.628,-1.913 -3.903,-2.918 -0.841,-0.663 -1.663,-1.349 -2.451,-2.074 -0.743,-0.682 -1.501,-1.433 -2.182,-2.247 -1.264,-1.515 -2.262,-3.257 -2.402,-5.221 -0.023,-0.328 -0.02,-0.648 0.006,-0.961 0.025,-0.346 0.07,-0.678 0.134,-1 0.252,-1.253 0.796,-2.321 1.504,-3.277 0.793,-1.068 1.789,-1.996 2.812,-2.887 0.174,-0.152 0.35,-0.304 0.525,-0.456 1.2,-1.033 2.421,-2.061 3.57,-3.166 1.657,-1.599 3.16,-3.364 4.221,-5.559 0.945,-2.075 1.242,-4.318 1.879,-6.484"
         id="path3738"
         inkscape:connector-curvature="0" /></clipPath><clipPath
       clipPathUnits="userSpaceOnUse"
       id="clipPath3744"><path
         d="m 8131.9399,8099.5298 h 48.4297 V 8216.29 h -48.4297 z"
         id="path3746"
         inkscape:connector-curvature="0" /></clipPath><linearGradient
       x1="0"
       y1="0"
       x2="1"
       y2="0"
       gradientUnits="userSpaceOnUse"
       gradientTransform="matrix(-4.823424,18.398846,18.398846,4.823424,229.74162,-653.63699)"
       spreadMethod="pad"
       id="linearGradient3994"><stop
         style="stop-opacity:1;stop-color:#320000"
         offset="0"
         id="stop3996" /><stop
         style="stop-opacity:1;stop-color:#5d0000"
         offset="1"
         id="stop3998" /></linearGradient><linearGradient
       inkscape:collect="always"
       xlink:href="#linearGradient3994"
       id="linearGradient6928"
       gradientUnits="userSpaceOnUse"
       gradientTransform="matrix(-4.823424,18.398846,18.398846,4.823424,178.37359,-652.01329)"
       spreadMethod="pad"
       x1="0"
       y1="0"
       x2="1"
       y2="0" /><linearGradient
       inkscape:collect="always"
       xlink:href="#linearGradient3994"
       id="linearGradient13087"
       gradientUnits="userSpaceOnUse"
       gradientTransform="matrix(-4.823424,18.398846,18.398846,4.823424,228.23652,-652.54849)"
       spreadMethod="pad"
       x1="0"
       y1="0"
       x2="1"
       y2="0" /><radialGradient
       inkscape:collect="always"
       xlink:href="#linearGradient13097"
       id="radialGradient13103"
       cx="83.894989"
       cy="107.96873"
       fx="83.894989"
       fy="107.96873"
       r="7.6135693"
       gradientTransform="matrix(3.4443993,-0.02347322,0.02360244,3.4633602,-206.8635,-263.35304)"
       gradientUnits="userSpaceOnUse" /><linearGradient
       inkscape:collect="always"
       xlink:href="#linearGradient13097"
       id="linearGradient13111"
       x1="70.906181"
       y1="105.05146"
       x2="80.30423"
       y2="93.296669"
       gradientUnits="userSpaceOnUse" /><radialGradient
       inkscape:collect="always"
       xlink:href="#linearGradient13133"
       id="radialGradient13139"
       cx="81.774796"
       cy="108.75017"
       fx="81.774796"
       fy="108.75017"
       r="2.5978158"
       gradientTransform="matrix(-3.1879104,2.3602476,-2.5852595,-3.4918273,623.61293,292.86658)"
       gradientUnits="userSpaceOnUse" /><radialGradient
       inkscape:collect="always"
       xlink:href="#linearGradient13159"
       id="radialGradient13157"
       cx="78.951347"
       cy="84.8638"
       fx="78.951347"
       fy="84.8638"
       r="12.642331"
       gradientTransform="matrix(1.2113198,1.5046584,-1.6027597,1.290288,124.9057,-154.61864)"
       gradientUnits="userSpaceOnUse" /><radialGradient
       inkscape:collect="always"
       xlink:href="#linearGradient13133"
       id="radialGradient13171"
       cx="75.852272"
       cy="73.316071"
       fx="75.852272"
       fy="73.316071"
       r="4.9857697"
       gradientTransform="matrix(-2.3147505,1.1957587,-0.9558647,-1.8503634,325.46969,116.56316)"
       gradientUnits="userSpaceOnUse" /><radialGradient
       inkscape:collect="always"
       xlink:href="#linearGradient13181"
       id="radialGradient13179"
       cx="93.05838"
       cy="94.702835"
       fx="93.05838"
       fy="94.702835"
       r="8.9444189"
       gradientTransform="matrix(1.6545476,1.9474072,-2.1097047,1.7924382,133.07241,-250.74352)"
       gradientUnits="userSpaceOnUse" /><linearGradient
       inkscape:collect="always"
       xlink:href="#linearGradient3994"
       id="linearGradient2468"
       gradientUnits="userSpaceOnUse"
       gradientTransform="matrix(-1.2306122,4.6941436,4.6941436,1.2306122,119.95345,-76.356764)"
       spreadMethod="pad"
       x1="0"
       y1="0"
       x2="1"
       y2="0" /><linearGradient
       inkscape:collect="always"
       xlink:href="#linearGradient13097"
       id="linearGradient2475"
       gradientUnits="userSpaceOnUse"
       gradientTransform="matrix(0.77037695,0,0,0.77037695,137.4166,-12.393181)"
       x1="189.52541"
       y1="58.030899"
       x2="232.19206"
       y2="17.874037" /><radialGradient
       inkscape:collect="always"
       xlink:href="#linearGradient13133"
       id="radialGradient2478"
       gradientUnits="userSpaceOnUse"
       gradientTransform="matrix(-8.4095673,6.3146418,-5.7457549,-7.6519605,1222.9967,489.74454)"
       cx="42.322643"
       cy="94.079773"
       fx="42.322643"
       fy="94.079773"
       r="2.5978158" /><radialGradient
       inkscape:collect="always"
       xlink:href="#linearGradient13097"
       id="radialGradient2481"
       gradientUnits="userSpaceOnUse"
       gradientTransform="matrix(6.0642596,-1.3130982,1.0532154,4.8640479,-592.96197,-255.47878)"
       cx="137.42596"
       cy="99.408234"
       fx="137.42596"
       fy="99.408234"
       r="7.6135693" /><radialGradient
       inkscape:collect="always"
       xlink:href="#linearGradient13181"
       id="radialGradient2484"
       gradientUnits="userSpaceOnUse"
       gradientTransform="matrix(4.4401838,5.0883796,-6.245423,5.4498338,40.990667,-803.68879)"
       cx="121.3932"
       cy="39.075352"
       fx="121.3932"
       fy="39.075352"
       r="8.9444189" /><radialGradient
       inkscape:collect="always"
       xlink:href="#linearGradient13159"
       id="radialGradient2487"
       gradientUnits="userSpaceOnUse"
       gradientTransform="matrix(2.3272671,7.4456872,-4.8351741,1.5110576,42.34746,-555.29904)"
       cx="69.566948"
       cy="-26.194185"
       fx="69.566948"
       fy="-26.194185"
       r="12.642331" /><radialGradient
       inkscape:collect="always"
       xlink:href="#linearGradient13133"
       id="radialGradient2490"
       gradientUnits="userSpaceOnUse"
       gradientTransform="matrix(-9.3445322,3.1518621,-2.3043839,-6.8318663,516.14359,625.79039)"
       cx="-3.783386"
       cy="99.871925"
       fx="-3.783386"
       fy="99.871925"
       r="4.9857697" /></defs><sodipodi:namedview
     inkscape:window-height="405"
     inkscape:window-width="1209"
     inkscape:pageshadow="2"
     inkscape:pageopacity="0.0"
     guidetolerance="10.0"
     gridtolerance="10.0"
     objecttolerance="10.0"
     borderopacity="1.0"
     bordercolor="#666666"
     pagecolor="#ffffff"
     id="base"
     showgrid="false"
     showguides="true"
     inkscape:guide-bbox="true"
     inkscape:zoom="0.5209091"
     inkscape:cx="302.50563"
     inkscape:cy="122.71938"
     inkscape:window-x="441"
     inkscape:window-y="186"
     inkscape:current-layer="g2432"
     fit-margin-top="0"
     fit-margin-left="0"
     fit-margin-right="0"
     fit-margin-bottom="0"
     inkscape:window-maximized="0"><sodipodi:guide
       orientation="0,1"
       position="398.02425,1097.5986"
       id="guide5102"
       inkscape:locked="false" /></sodipodi:namedview><g
     id="g2432"
     inkscape:groupmode="layer"
     inkscape:label="remote_access_service_over_ipss-mm00313"
     transform="matrix(1.25,0,0,-1.25,31.783261,-97.449929)"><path
       d="m 364.08146,-188.59774 c -15.10196,0 -24.96742,7.55294 -24.96742,25.58671 0,15.28617 8.43875,27.09964 27.00949,27.09964 3.99793,0 9.06196,-0.79958 12.4406,-2.13222 l -2.84558,-10.66113 c -3.01412,1.06611 -5.94985,1.8657 -9.23834,1.8657 -9.50486,0 -13.41656,-6.2203 -13.41656,-15.54878 0,-9.06196 3.55502,-15.10588 12.8835,-15.10588 4.3546,0 7.37264,1.06611 10.30837,2.22237 l 1.50902,-10.48474 c -2.57905,-1.59917 -7.99584,-2.84167 -13.68308,-2.84167 z m -121.90137,58.1933 c 4.62113,0 8.35252,3.55501 8.35252,8.08599 0,4.44475 -3.73139,7.81947 -8.35252,7.81947 -4.26053,0 -8.08207,-3.37472 -8.08207,-7.81947 0,-4.53098 3.82154,-8.08599 8.08207,-8.08599 z m -7.19626,-57.30356 h 13.05988 v 50.90688 c -6.12623,0.62713 -13.05988,-1.06611 -13.05988,-10.66113 z m 171.11893,40.77881 c -5.85578,0 -11.45679,-4.3546 -11.45679,-15.54878 0,-9.68517 3.64124,-15.10196 11.28433,-15.10196 6.48291,0 11.46071,5.24041 11.46071,15.54486 0,9.86547 -3.55501,15.10588 -11.28825,15.10588 z m -0.52522,-41.84492 c -14.48659,0 -24.61466,7.90177 -24.61466,25.67685 0,15.90154 10.66113,27.36617 26.12368,27.36617 14.39252,0 23.72101,-8.08991 23.72101,-25.41424 0,-16.6149 -10.12415,-27.62878 -25.23003,-27.62878 z m -261.21721,41.04925 c -2.84558,1.0622 -7.20018,2.12831 -10.75127,2.12831 -4.08808,0 -7.19626,-1.06611 -7.19626,-4.79751 0,-8.79543 22.56474,-3.37863 22.56474,-21.50255 0,-12.2603 -9.95169,-16.96765 -21.14587,-16.96765 -5.15419,0 -10.30445,0.79566 -15.01573,2.21845 l 0.79958,10.75128 c 0,0 7.46279,-2.48499 13.68309,-2.48499 4.3546,0 7.90961,1.33265 7.90961,5.15027 0,9.41863 -22.65881,3.37472 -22.65881,21.4124 0,11.28434 9.50879,15.90546 19.99353,15.90546 6.21638,0 11.19419,-1.15626 14.21223,-2.22237 z m 84.66973,10.92374 c -2.84166,-15.10196 -10.12807,-38.91311 -14.7492,-50.90688 H 200.4214 l -9.77531,33.93531 h -0.17638 l -9.7714,-33.93531 h -13.77323 c -4.44083,11.81347 -12.4406,36.42421 -14.7492,50.90688 h 13.0638 l 8.61905,-35.00534 h 0.17246 l 10.30837,35.00534 h 13.0638 l 10.03792,-34.73881 h 0.1803 l 8.70528,34.73881 z m 267.88434,1.07003 c 9.86154,0 15.63501,-5.33448 15.63501,-16.97157 V -187.708 H 499.4033 v 32.33614 c 0,5.24433 -1.51686,8.7092 -7.11395,8.7092 -5.59317,0 -10.48475,-4.88374 -10.48475,-13.67917 V -187.708 h -12.87958 v 32.33614 c 0,4.89157 -1.59917,8.7092 -7.20018,8.7092 -5.86362,0 -10.3946,-5.42072 -10.3946,-14.21615 V -187.708 h -13.32249 v 50.90688 c 8.70528,1.07003 11.98985,-2.48498 12.34653,-8.17222 3.19833,5.68724 8.7092,9.24225 15.90546,9.24225 9.1521,0 12.79335,-5.06795 14.12599,-9.86546 2.21846,5.06404 7.9057,9.86546 16.52867,9.86546 z m -209.33437,-11.99377 c -2.92789,1.0622 -7.19234,2.12831 -10.74344,2.12831 -4.09199,0 -7.37656,-1.06611 -7.37656,-4.79751 0,-8.79543 22.74505,-3.37863 22.74505,-21.50255 0,-12.2603 -10.03792,-16.96765 -21.14588,-16.96765 -5.15418,0 -10.30837,0.79566 -15.19602,2.21845 l 0.97988,10.75128 c 0,0 7.46279,-2.48499 13.68309,-2.48499 4.1743,0 7.81554,1.33265 7.81554,5.15027 0,9.41863 -22.74504,3.37472 -22.74504,21.4124 0,11.28434 9.59501,15.90546 19.98961,15.90546 6.2203,0 11.37449,-1.15626 14.39644,-2.22237 z m 41.40594,0 c -2.84166,1.0622 -7.19626,2.12831 -10.75128,2.12831 -4.08415,0 -7.28641,-1.06611 -7.28641,-4.79751 0,-8.79543 22.65882,-3.37863 22.65882,-21.50255 0,-12.2603 -9.9517,-16.96765 -21.14588,-16.96765 -5.15418,0 -10.30837,0.79566 -15.01573,2.21845 l 0.88974,10.75128 c 0,0 7.37264,-2.48499 13.59293,-2.48499 4.3546,0 7.90962,1.33265 7.90962,5.15027 0,9.41863 -22.65881,3.37472 -22.65881,21.4124 0,11.28434 9.50878,15.90546 19.98961,15.90546 6.2203,0 11.28433,-1.15626 14.21614,-2.22237 l -2.39875,-9.5911"
       style="fill:#122a6b;fill-opacity:1;fill-rule:nonzero;stroke:none"
       id="path2434"
       inkscape:connector-curvature="0" /><g
       id="g886"
       transform="matrix(0.986443,0,0,0.986443,-295.70503,-146.92293)"><path
         sodipodi:nodetypes="csscsscsc"
         id="path13057"
         d="m 302.32912,-24.731581 c -3.734,-4.806348 -6.59342,-10.974464 -5.77562,-17.173308 0.98816,-7.490134 5.71214,-13.927225 11.2477,-18.796496 5.46279,-4.80525 12.04811,-8.08883 18.721,-10.870261 -2.49493,1.445515 -4.28873,3.529718 -5.66158,5.888058 -1.37287,2.35834 -2.34518,5.033378 -3.09501,7.850745 -1.49967,5.634732 -2.22551,11.708322 -4.22733,16.456369 -1.48348,3.827377 -3.51799,7.254269 -5.88806,10.417335 -1.60133,2.137123 -3.45733,4.291542 -5.3211,6.227558 z"
         style="fill:url(#radialGradient2490);fill-opacity:1;fill-rule:nonzero;stroke:none;stroke-width:0.77037692"
         inkscape:connector-curvature="0" /><path
         sodipodi:nodetypes="cssssssssssssssssssssssssssssssssssssssssssssssssssscscscccsc"
         id="path2674"
         d="m 315.12353,49.058057 c 1.43316,-2.080659 3.60869,-5.232249 5.73709,-8.454648 0.93417,-1.412469 1.90434,-2.852567 2.71755,-4.227323 0.48787,-0.824298 0.88841,-1.569968 1.2833,-2.340126 0.4772,-0.933091 0.91582,-1.899126 1.20781,-2.717566 0.21021,-0.5834 0.3185,-1.135669 0.37744,-1.585246 0.0154,-0.117308 0.0744,-0.195755 0.0755,-0.301951 0,-1.959698 0,-2.72433 0,-2.94403 0,-0.233046 0,-0.514223 0,-0.905855 5.4e-4,-0.391782 0,-0.870557 0,-1.434271 4.2e-4,-1.127487 -7.7e-4,-2.639149 0,-4.529269 7.7e-4,-1.890128 -5.5e-4,-4.188517 0,-6.944889 4.6e-4,-2.7564825 0,-5.9367795 0,-9.6624557 0,-1.1698572 0,-2.6419437 0,-4.3028112 5.4e-4,-1.6608685 0,-3.524091 0,-5.3596438 0,-1.8354404 0,-3.6658383 0,-5.3596423 0,-1.693807 0,-3.217513 0,-4.453788 7.7e-4,-3.434782 0,-6.079616 0,-9.662454 -1e-5,-1.791966 0,-3.822346 0,-6.340986 5.4e-4,-2.518634 0,-5.503529 0,-9.209528 -1e-5,-1.972956 5.4e-4,-4.315326 0,-6.869402 -5.5e-4,-2.554186 5.4e-4,-5.35643 0,-8.152697 -7.7e-4,-2.796154 4.6e-4,-5.605129 0,-8.303672 -5.5e-4,-2.698544 0,-5.287669 0,-7.548793 0,-8.223026 -1e-5,-15.097576 0,-15.097585 1.43098,0.118812 2.88623,0.253358 4.3783,0.452927 1.49203,0.199587 2.99213,0.396983 4.52928,0.679392 1.89915,0.351426 3.86875,0.803482 5.81256,1.283294 1.94265,0.47992 3.85191,1.048196 5.81258,1.660735 1.65609,0.515899 3.33666,1.048195 4.98219,1.660735 1.64543,0.612535 3.2889,1.252423 4.90672,1.962686 1.44161,0.63058 2.8962,1.328998 4.30281,2.038173 1.40662,0.70918 2.79515,1.47698 4.15184,2.264639 1.76437,1.027562 3.47493,2.08558 5.13318,3.24598 1.65813,1.160292 3.23348,2.399587 4.75574,3.698909 1.74956,1.494773 3.37705,3.079437 4.90671,4.75574 1.52977,1.677281 2.96411,3.423166 4.22733,5.284155 1.31639,1.944906 2.49152,4.040307 3.47244,6.19001 0.97986,2.148612 1.74464,4.358491 2.34012,6.718426 0.3249,1.278124 0.63392,2.584091 0.83038,3.925372 0.19532,1.340848 0.31372,2.747399 0.37743,4.151837 0.0722,1.575973 0.006,3.080318 -0.15097,4.604764 -0.15817,1.524334 -0.45882,3.053094 -0.83038,4.529274 -1.00636,3.964494 -2.73601,7.774578 -5.05769,11.474165 -1.45966,2.330691 -3.09784,4.608713 -4.9822,6.869401 -1.88437,2.2606919 -3.9639,4.5087196 -6.19,6.7184267 -2.25168,2.235146 -4.65543,4.43170941 -7.17135,6.6429367 -2.51492,2.2113412 -5.1522,4.4299707 -7.85075,6.6429382 -1.6614,1.3604164 -3.35486,2.7084344 -5.05768,4.0763484 -1.70176,1.368349 -3.40603,2.769562 -5.13319,4.151837 -1.32801,1.063655 -2.66862,2.096715 -4.00086,3.170486 -1.33227,1.074314 -2.67285,2.158412 -4.00086,3.245981 -2.97987,2.44113 -5.94299,4.939899 -8.83209,7.473306 -2.55363,2.298968 -5.03471,4.513664 -7.39782,6.793912 -0.78135,0.752675 -1.49556,1.487626 -2.26463,2.264639 0.74668,-0.901296 1.45205,-1.97857 2.18914,-3.095006 -0.73866,1.119124 -1.441,2.191837 -2.18914,3.095006 -2.46559,2.490466 -4.89135,5.138764 -7.39781,8.077207 z m 16.53186,-23.552233 c 0.12098,-0.381757 0.1958,-0.742047 0.22646,-1.056831 -0.0308,0.322122 -0.10093,0.66363 -0.22646,1.056831 z"
         style="fill:url(#radialGradient2487);fill-opacity:1;fill-rule:nonzero;stroke:none;stroke-width:0.77037692"
         inkscape:connector-curvature="0" /><path
         sodipodi:nodetypes="ccccc"
         id="path3178"
         d="m 315.14873,48.983234 c 7.97207,-11.564388 11.06824,-15.104258 11.46267,-20.373406 6e-5,-32.057191 0.24667,-67.780826 0.24676,-99.838034 19.84263,20.179255 34.8573,45.564335 42.30621,72.896851 -16.95999,14.279846 -39.42008,30.294265 -54.01564,47.314589 z"
         style="fill:url(#radialGradient2484);fill-opacity:1;fill-rule:nonzero;stroke:none;stroke-width:0.77037692"
         inkscape:connector-curvature="0" /><path
         sodipodi:nodetypes="cccccc"
         id="path3604"
         d="m 333.61807,55.248067 c -3.17832,-0.465851 -9.53141,-0.457214 -8.30367,-5.099541 -4.3e-4,-3.98691 1.2187,-9.067882 1.21838,-13.054792 13.37247,-12.158991 29.83823,-25.3347 42.6417,-35.4226671 3.22086,13.1354911 2.19296,28.0284741 -5.60135,38.3705611 -6.87813,9.271941 -18.31603,15.445676 -29.95506,15.206439 z"
         style="fill:url(#radialGradient2481);fill-opacity:1;fill-rule:nonzero;stroke:none;stroke-width:0.77037692"
         inkscape:connector-curvature="0" /><path
         sodipodi:nodetypes="ccscsccc"
         id="path4018"
         d="m 324.25757,69.892729 c -3.76601,-0.308297 -7.61235,-1.452962 -10.53136,-3.933891 -2.20908,-2.003993 -3.29692,-5.12711 -2.75451,-8.068693 0.65082,-3.47939 2.43212,-6.644962 4.613,-9.390215 1.6807,-2.019272 3.46133,-3.947505 5.28406,-5.838539 1.83587,-1.90465 3.73111,-3.750149 5.65344,-5.559233 0,10.578698 0,22.060924 0,32.639592 -0.73857,0.189537 -1.50846,0.184552 -2.26463,0.150979 z"
         style="fill:url(#radialGradient2478);fill-opacity:1;fill-rule:nonzero;stroke:none;stroke-width:0.77037692"
         inkscape:connector-curvature="0" /><path
         sodipodi:nodetypes="cccccccccccsc"
         id="path11650"
         d="m 311.88178,54.643107 c -12.30994,-9.853742 -26.8215,-18.095664 -35.0457,-32.022401 -5.57309,-9.284523 -2.46187,-21.457562 5.06899,-28.6563809 11.18963,-11.0905171 25.70462,-20.0172051 31.63852,-35.3267061 4.00364,-9.496087 3.01058,-24.395946 12.99033,-30.178004 0.052,12.349986 0.049,12.308636 -0.009,28.264706 -6.71413,1.371702 -8.62646,7.541174 -9.33269,12.873516 -0.66919,5.776697 -3.2061,11.470342 -8.36081,14.571437 -5.28487,3.795767 -13.05007,7.9912554 -12.00602,15.67772043 0.54106,6.74278007 8.1645,8.08228027 13.16766,10.45488457 8.31896,3.197778 5.81237,17.963814 16.48971,19.157791 0.15118,3.582748 -3.94235,8.779306 -5.99688,11.792241 -3.022,4.431685 -6.22118,8.635335 -8.60433,13.391196 z"
         style="fill:url(#linearGradient2475);fill-opacity:1;fill-rule:nonzero;stroke:none;stroke-width:0.77037692"
         inkscape:connector-curvature="0" /><g
         transform="matrix(3.0195171,0,0,3.0195171,-92.68625,-285.37949)"
         id="g3984"><g
           id="g3986"><g
             id="g3992"><path
               sodipodi:nodetypes="cscccccssccc"
               id="path4000"
               style="fill:url(#linearGradient2468);stroke:none"
               d="m 138.882,80.158 c -0.064,0.011 -0.114,0.02 -0.196,0.042 -0.374,0.102 -0.735,0.253 -1.057,0.47 -2.88251,1.851308 -0.7123,5.619673 -4.284,8.339 -0.245,-0.248 -0.66429,-0.597355 -1.25429,-1.188355 l -1.2685,-1.496625 c 1.318,-1.375 2.54079,-2.90702 3.41779,-4.72102 1.046,-2.296 1.21207,-4.883934 2.01207,-7.261934 0.292,-0.87 0.72793,-1.670066 1.27093,-2.413066 0.34,-0.462 0.748,-0.88 1.359,-1.131 0,0.988 0,8.131 0,9.275 v 0.086"
               inkscape:connector-curvature="0" /></g></g></g></g></g></svg>