<svg width="24" height="24" viewBox="0 0 24 24" fill="none" xmlns="http://www.w3.org/2000/svg">
    <path fill-rule="evenodd" clip-rule="evenodd"
          d="M19.4415 13.2853L18.8555 12.6992C18.6601 12.5039 18.4042 12.4062 18.1483 12.4062C17.8923 12.4062 17.6364 12.5039 17.4412 12.6991L16.2773 13.863L15.7344 14.4059L11.9352 18.205L11.7367 19.9897C11.7117 20.2144 11.8888 20.4062 12.1086 20.4062C12.1225 20.4062 12.1366 20.4055 12.1506 20.4039L13.9341 20.2069L17.7347 16.4062L18.2775 15.8634L19.4414 14.6995C19.832 14.3089 19.832 13.6758 19.4415 13.2853ZM13.5841 19.4889L12.5281 19.6055L12.6458 18.5478L16.2589 14.9347L16.7436 14.45L17.6833 15.3897L17.1986 15.8744L13.5841 19.4889ZM18.2177 14.8611L18.9095 14.1692C19.007 14.0719 19.007 13.9133 18.9095 13.8156L18.3234 13.2295C18.2598 13.1658 18.1853 13.1562 18.1467 13.1562C18.1081 13.1562 18.0337 13.1658 17.97 13.2295L17.2781 13.9214L18.2177 14.8611Z"
          fill="#8A8C9E"/>
    <mask id="mask0_11707_198189" style="mask-type:alpha" maskUnits="userSpaceOnUse" x="4" y="3" width="15" height="17">
        <path d="M4.28125 3.59375H18.6812V11.4657C17.7561 11.4069 16.8499 11.7466 16.1913 12.399L13.9604 14.6088L11.7945 16.8446C11.0805 17.5816 10.6812 18.5676 10.6812 19.5938H4.28125V3.59375Z"
              fill="#D9D9D9"/>
    </mask>
    <g mask="url(#mask0_11707_198189)">
        <path d="M12.9212 6.07188C12.9212 5.63005 12.5631 5.27188 12.1212 5.27188H10.8412C10.3994 5.27188 10.0412 5.63005 10.0412 6.07188V17.2719C10.0412 17.7137 10.3994 18.0719 10.8412 18.0719H12.1212C12.5631 18.0719 12.9212 17.7137 12.9212 17.2719V6.07188ZM15.1612 5.27188C14.7194 5.27188 14.3612 5.63005 14.3612 6.07188V17.2719C14.3612 17.7137 14.7194 18.0719 15.1612 18.0719H16.4412C16.8831 18.0719 17.2412 17.7137 17.2412 17.2719V6.07188C17.2412 5.63005 16.8831 5.27188 16.4412 5.27188H15.1612ZM8.60125 6.07188C8.60125 5.63005 8.24308 5.27188 7.80125 5.27188H6.52125C6.07942 5.27188 5.72125 5.63005 5.72125 6.07188V17.2719C5.72125 17.7137 6.07942 18.0719 6.52125 18.0719H7.80125C8.24308 18.0719 8.60125 17.7137 8.60125 17.2719V6.07188ZM4.28125 5.27188C4.28125 4.38822 4.99759 3.67188 5.88125 3.67188H17.0812C17.9649 3.67188 18.6812 4.38822 18.6812 5.27188V18.0719C18.6812 18.9555 17.9649 19.6719 17.0812 19.6719H5.88125C4.9976 19.6719 4.28125 18.9555 4.28125 18.0719V5.27188Z"
              fill="#8A8C9E"/>
    </g>
</svg>
