<svg width="34" height="34" viewBox="0 0 34 34" fill="none" xmlns="http://www.w3.org/2000/svg">
    <path opacity="0.4" fill-rule="evenodd" clip-rule="evenodd"
          d="M23.3228 17.0016C23.3228 20.7129 20.3142 23.7216 16.6028 23.7216C12.8915 23.7216 9.88281 20.7129 9.88281 17.0016C9.88281 13.2902 12.8915 10.2816 16.6028 10.2816C20.3142 10.2816 23.3228 13.2902 23.3228 17.0016ZM12.7625 17.0024C12.7625 19.1231 14.4818 20.8424 16.6025 20.8424C18.7231 20.8424 20.4425 19.1231 20.4425 17.0024C20.4425 14.8818 18.7231 13.1624 16.6025 13.1624C14.4818 13.1624 12.7625 14.8818 12.7625 17.0024Z"
          fill="#0EC76A"/>
    <path d="M20.5341 14.3709L17.7015 17.2035C17.3265 17.5785 16.7186 17.5785 16.3437 17.2035C15.9688 16.8286 15.9688 16.2207 16.3437 15.8458L19.2992 12.8902L19.0723 11.8006C19.0003 11.4538 19.1459 10.9686 19.3923 10.7216L23.2375 6.8768C23.4864 6.62752 23.7469 6.70784 23.8189 7.05408L24.3117 9.42272L26.6803 9.91552C27.0275 9.98784 27.1047 10.2502 26.8579 10.497L23.0128 14.3421C22.7639 14.591 22.28 14.7341 21.9338 14.6621L20.5341 14.3709Z"
          fill="#0EC76A"/>
    <path fill-rule="evenodd" clip-rule="evenodd"
          d="M16.6016 1.99969C24.8858 1.99969 31.6016 8.71542 31.6016 16.9997C31.6016 25.284 24.8858 31.9997 16.6016 31.9997C8.31729 31.9997 1.60156 25.284 1.60156 16.9997C1.60156 8.71542 8.31729 1.99969 16.6016 1.99969Z"
          stroke="#DFE1ED" stroke-opacity="0.5" stroke-width="2.88" stroke-linecap="round" stroke-linejoin="round"/>
</svg>
