<svg width="32" height="32" viewBox="0 0 32 32" fill="none" xmlns="http://www.w3.org/2000/svg">
<circle opacity="0.13" cx="16" cy="16" r="16" fill="#05A8FA"/>
<path opacity="0.4" fill-rule="evenodd" clip-rule="evenodd" d="M15.9998 26.24C10.3444 26.24 5.75977 21.6554 5.75977 16C5.75977 10.3446 10.3444 5.76001 15.9998 5.76001C21.6551 5.76001 26.2398 10.3446 26.2398 16C26.2398 21.6554 21.6551 26.24 15.9998 26.24ZM15.9998 22.72C19.7111 22.72 22.7198 19.7114 22.7198 16C22.7198 12.2886 19.7111 9.28001 15.9998 9.28001C12.2884 9.28001 9.27977 12.2886 9.27977 16C9.27977 19.7114 12.2884 22.72 15.9998 22.72ZM12.1598 16C12.1598 18.1206 13.8791 19.84 15.9998 19.84C18.1204 19.84 19.8398 18.1206 19.8398 16C19.8398 13.8794 18.1204 12.16 15.9998 12.16C13.8791 12.16 12.1598 13.8794 12.1598 16Z" fill="#05A8FA"/>
<path d="M19.9325 13.3744L17.0999 16.207C16.725 16.5819 16.1171 16.5819 15.7421 16.207C15.3672 15.8321 15.3672 15.2242 15.7421 14.8492L18.6977 11.8937L18.4708 10.8041C18.3988 10.4572 18.5444 9.97212 18.7908 9.72508L22.6359 5.88028C22.8849 5.631 23.1453 5.71132 23.2173 6.05756L23.7101 8.4262L26.0788 8.919C26.426 8.99132 26.5031 9.25372 26.2564 9.50044L22.4113 13.3456C22.1623 13.5945 21.6785 13.7376 21.3322 13.6656L19.9325 13.3744Z" fill="#05A8FA"/>
</svg>
