<svg xmlns="http://www.w3.org/2000/svg" width="48" height="48" viewBox="0 0 48 48">
    <g fill="none" fill-rule="nonzero">
        <circle cx="24" cy="24" r="24" fill="#FEF5CB"/>
        <path fill="#FAD311" d="M29.76 36.763v-3.47c0-4.057 6.24-7.125 6.24-13.09 0-6.65-5.373-12.043-12-12.043s-12 5.392-12 12.043c0 5.95 6.243 9.057 6.24 13.09v3.513l11.52-.043z"/>
        <path fill="#F79D0E" d="M24.96 23.833v7.85a.961.961 0 0 1-.96.957.956.956 0 0 1-.96-.958v-7.849l-3.487-1.75a1.005 1.005 0 0 1 .13-1.85.998.998 0 0 1 .764.055L24 22.07l3.553-1.782a.998.998 0 0 1 1.342.448 1.005 1.005 0 0 1-.448 1.347l-3.487 1.75zM18.24 34.56h11.52v3.12a3.122 3.122 0 0 1-3.118 3.12h-5.284a3.12 3.12 0 0 1-3.118-3.12v-3.12z"/>
    </g>
</svg>
