<svg viewBox="0 0 14 17" fill="none" xmlns="http://www.w3.org/2000/svg">
<path fill-rule="evenodd" clip-rule="evenodd" d="M13.5 2.52539H10.9247L9.86219 0.753516C9.59095 0.301564 9.10241 0.02514 8.57531 0.0253906H5.42469C4.89782 0.0253596 4.40956 0.301755 4.13844 0.753516L3.07531 2.52539H0.5C0.223858 2.52539 0 2.74925 0 3.02539V3.52539C0 3.80153 0.223858 4.02539 0.5 4.02539H1V14.5254C1 15.3538 1.67157 16.0254 2.5 16.0254H11.5C12.3284 16.0254 13 15.3538 13 14.5254V4.02539H13.5C13.7761 4.02539 14 3.80153 14 3.52539V3.02539C14 2.74925 13.7761 2.52539 13.5 2.52539ZM8.375 13.0254H9.125C9.33211 13.0254 9.5 12.8575 9.5 12.6504V5.90039C9.5 5.69328 9.33211 5.52539 9.125 5.52539H8.375C8.16789 5.52539 8 5.69328 8 5.90039V12.6504C8 12.8575 8.16789 13.0254 8.375 13.0254ZM5.53122 1.52539C5.46521 1.52521 5.40396 1.55975 5.36997 1.61633L4.82465 2.52539H9.17528L8.62965 1.61633C8.59571 1.55984 8.53461 1.52532 8.46872 1.52539H5.53122ZM11.5 14.5254H2.5V4.02539H11.5V14.5254ZM5.625 13.0254H4.875C4.66789 13.0254 4.5 12.8575 4.5 12.6504V5.90039C4.5 5.69328 4.66789 5.52539 4.875 5.52539H5.625C5.83211 5.52539 6 5.69328 6 5.90039V12.6504C6 12.8575 5.83211 13.0254 5.625 13.0254Z"/>
</svg>
