<svg width="12" height="12" viewBox="0 0 12 12" fill="none" xmlns="http://www.w3.org/2000/svg">
<path fill-rule="evenodd" clip-rule="evenodd" d="M6.39771 0.961882C7.67965 -0.320053 9.7555 -0.321202 11.0381 0.961882C12.3204 2.2437 12.3209 4.31944 11.0381 5.60229C10.6211 6.01931 10.2988 6.34205 10.0479 6.59332C9.83662 6.80486 9.67597 6.96574 9.55197 7.08956C9.37706 7.26422 9.07547 7.14473 9.07183 6.89756C9.06747 6.59884 9.03017 6.30151 8.9606 6.01097C8.93796 5.91654 8.96697 5.81716 9.03565 5.74852L10.1102 4.67414C10.8779 3.90598 10.881 2.66105 10.1102 1.88977C9.34204 1.12208 8.09712 1.11898 7.32584 1.88977L5.56357 3.65227C4.79675 4.41926 4.79536 5.6682 5.56357 6.43641C5.71919 6.59231 5.89995 6.7209 6.09827 6.81677C6.20663 6.86911 6.2666 6.98669 6.25205 7.10613C6.22027 7.3668 6.10451 7.61908 5.90482 7.81875L5.80228 7.92129C5.7173 8.00625 5.58717 8.02896 5.47978 7.97505C5.17512 7.82215 4.88946 7.61854 4.63545 7.36453C3.43801 6.16709 3.36099 4.26406 4.40693 2.97797C4.4232 2.95783 4.43665 2.94105 4.45037 2.92448C4.56001 2.79203 4.68627 2.67333 6.39771 0.961882ZM7.59308 9.02203C8.63902 7.73594 8.56201 5.83291 7.36456 4.63547C7.11055 4.38145 6.82489 4.17785 6.52023 4.02495C6.41282 3.97104 6.28269 3.99373 6.19773 4.07871L6.09519 4.18125C5.89553 4.38094 5.77975 4.6332 5.74797 4.89387C5.73341 5.0133 5.79339 5.13089 5.90174 5.18323C6.10006 5.2791 6.28082 5.40769 6.43644 5.56359C7.20465 6.3318 7.20327 7.58074 6.43644 8.34773L4.67418 10.1102C3.9029 10.881 2.65797 10.8779 1.88981 10.1102C1.11902 9.33895 1.12211 8.09402 1.88981 7.32586L2.96439 6.25151C3.03306 6.18286 3.06208 6.08348 3.03944 5.98905C2.96987 5.69851 2.93256 5.40118 2.9282 5.10246C2.92457 4.85529 2.62298 4.7358 2.44806 4.91046C2.32406 5.03429 2.16339 5.19518 1.95211 5.40675C1.7012 5.65801 1.37891 5.98074 0.961918 6.39773C-0.320909 7.68058 -0.32037 9.75632 0.961918 11.0381C2.24451 12.3212 4.32037 12.3201 5.6023 11.0381C7.31375 9.32668 7.44 9.20797 7.54964 9.07552C7.56336 9.05895 7.57681 9.04217 7.59308 9.02203Z" fill="#A6A7B5"/>
</svg>
