<svg xmlns="http://www.w3.org/2000/svg" width="24" height="24" viewBox="0 0 24 24">
    <g fill="none">
        <circle cx="12" cy="12" r="12" fill="#ED3434" fill-opacity=".11"/>
        <path fill="#ED3434" d="M6.221 17.52c-.845 0-1.184-.598-.755-1.339l5.758-10.346c.429-.74 1.123-.74 1.552 0l5.759 10.346c.428.74.088 1.339-.755 1.339H6.22z"/>
        <path fill="#FFF" d="M11.28 9.36c0-.398.323-.72.72-.72.398 0 .72.32.72.72v3.12c0 .398-.323.72-.72.72-.398 0-.72-.32-.72-.72V9.36zm-.24 5.52c0-.53.43-.96.96-.96s.96.43.96.96-.43.96-.96.96-.96-.43-.96-.96z"/>
    </g>
</svg>
