<?xml version="1.0" encoding="UTF-8"?>
<svg width="100pt" height="100pt" version="1.1" viewBox="0 0 100 100" xmlns="http://www.w3.org/2000/svg">
 <g fill-rule="evenodd">
  <path d="m17.66 66.562v-62.469h45.285v20c0 1.082 0.87109 1.957 1.9531 1.957h17.266v40.512zm58.867 26.023-1.6992-3.4023c-0.69922-1.3086-1.1445-2.2852-1.6758-3.3711h-0.050782c-0.39062 1.0859-0.86719 2.0625-1.4492 3.3711l-1.5625 3.4023h-4.8477l5.4336-9.5039-5.2383-9.2812h4.875l1.6484 3.4297c0.55469 1.1445 0.97266 2.0625 1.418 3.1211h0.054688c0.44531-1.1992 0.80859-2.0352 1.2812-3.1211l1.5898-3.4297h4.8477l-5.293 9.168 5.5742 9.6172zm-20.34 0.27734c-2.1445 0-4.2617-0.55859-5.3203-1.1445l0.86328-3.5117c1.1406 0.58594 2.8984 1.1719 4.707 1.1719 1.9531 0 2.9805-0.80859 2.9805-2.0352 0-1.168-0.89062-1.8398-3.1484-2.6445-3.1172-1.0859-5.1523-2.8164-5.1523-5.5469 0-3.2031 2.6719-5.6562 7.1055-5.6562 2.1172 0 3.6797 0.44531 4.793 0.94922l-0.94922 3.4258c-0.75-0.35938-2.0898-0.89062-3.9297-0.89062-1.8359 0-2.7305 0.83594-2.7305 1.8125 0 1.1953 1.0586 1.7266 3.4844 2.6445 3.3164 1.2266 4.875 2.9531 4.875 5.6016 0 3.1484-2.4219 5.8242-7.5781 5.8242zm-7.1055-0.27734h-11.73v-18.785h4.2656v15.215h7.4648zm-18.914 0-1.7031-3.4023c-0.69531-1.3086-1.1406-2.2852-1.6719-3.3711h-0.054688c-0.39062 1.0859-0.86328 2.0625-1.4492 3.3711l-1.5586 3.4023h-4.8477l5.4336-9.5039-5.2383-9.2812h4.875l1.6445 3.4297c0.55859 1.1445 0.97656 2.0625 1.4219 3.1211h0.054688c0.44922-1.1992 0.80859-2.0352 1.2812-3.1211l1.5898-3.4297h4.8477l-5.293 9.168 5.5742 9.6172zm55.887-68.512c-0.003907-0.46094-0.14844-0.91016-0.46484-1.2656l-19.223-21.957c-0.003907-0.007812-0.007813-0.007812-0.015626-0.015624-0.11328-0.12891-0.24609-0.23438-0.38672-0.32422-0.042969-0.027344-0.082032-0.054688-0.12891-0.078125-0.12109-0.066406-0.25-0.12109-0.38281-0.16016-0.039063-0.011719-0.070313-0.027344-0.10547-0.035157-0.14844-0.035156-0.29688-0.054687-0.44922-0.054687h-47.238c-2.1562 0-3.9102 1.7539-3.9102 3.9062v91.871c0 2.1562 1.7539 3.9102 3.9102 3.9102h64.504c2.1562 0 3.9102-1.7539 3.9102-3.9102v-71.672c0-0.070312-0.011719-0.14453-0.019531-0.21484z"/>
  <path d="m57.578 32.605h15.23v-6.3555h-15.23zm15.23 7.3281h-15.23v-6.3516h15.23zm0 14.66h-15.23v-6.3516h15.23zm-31.438 0h15.23v-6.3516h-15.23zm-16.207 0h15.23v-6.3516h-15.23zm0-7.332h15.23v-6.3516h-15.23zm0-7.3281h15.23v-6.3516h-15.23zm0-7.3281h15.23v-6.3555h-15.23zm16.207 7.3281h15.23v-6.3516h-15.23zm15.23-14.66h-32.414v30.297h49.598v-30.297z"/>
 </g>
</svg>
