<svg version="1" xmlns="http://www.w3.org/2000/svg" width="346.667" height="346.667" viewBox="0 0 260.000000 260.000000"><path d="M168.2 18.7c-.7 5.8-1 10.8-.9 11 .2.2 2-.4 4-1.2l3.6-1.5 6 18.8c3.3 10.3 11.9 36.7 19 58.7s12.9 40 12.8 40.1c-.2.2-86.6-37.6-87.5-38.2-.2-.1.6-2.1 1.8-4.4l2.1-4.2-11.3.7c-6.2.4-11.4.8-11.6 1-.2.2 10.4 14.2 12.9 16.9.4.4 1.5-.7 2.4-2.5 1-1.9 1.9-3.5 2-3.7.2-.2 19.5 8.1 42.9 18.4 23.5 10.3 42.3 19 41.9 19.4-1.4 1.2-158.3 37.1-159.3 36.5-.5-.3-1-2.1-1-4s-.4-3.6-.8-3.9c-.7-.4-16.3 10.2-18.8 12.7-.5.4 19.4 7.7 21 7.7.5 0 .6-1.8.2-4-.3-2.2-.4-4-.2-4s37.2-8.6 82.1-19c45-10.5 81.9-19 82-19 .2 0-11.9 60.3-15.1 74.8l-1.6 7.3-4.5-.7c-4.1-.6-4.5-.5-4 1.2 3.5 12 5.9 19.4 6.2 19.4.9 0 13.4-16.4 13-17.1-.3-.3-1.8-.9-3.5-1.2-1.6-.4-3-1.2-3-1.9s3.8-20 8.5-42.8l8.5-41.6-19.5-60.2C187.8 55.1 179 27.4 179 26.6c0-.7 1.8-1.8 4-2.5l4.1-1.2-5.3-4.8C175.1 12 170.3 8 169.8 8c-.3 0-1 4.8-1.6 10.7z"/></svg>